<?xml version="1.0" encoding="utf-8"?>
<!-- Generator: Adobe Illustrator 26.1.0, SVG Export Plug-In . SVG Version: 6.00 Build 0)  -->
<svg version="1.1" id="Camada_1" xmlns="http://www.w3.org/2000/svg" xmlns:xlink="http://www.w3.org/1999/xlink" x="0px" y="0px"
	 viewBox="0 0 454 200" style="enable-background:new 0 0 454 200;" xml:space="preserve">
<style type="text/css">
	.st0{enable-background:new    ;}
	.st1{fill:#F07215;}
</style>
<g id="logo_grande" transform="translate(0.125)">
	<g id="Componente_1_1" transform="translate(150)">
		<g>
			<g class="st0">
				<path d="M39.7,37l0.4,7.7c-0.7,1.1-1.5,2.1-2.7,3c-1.1,0.9-2.5,1.6-4.1,2.2c-1.7,0.6-3.6,0.8-5.9,0.8c-3.7,0-6.9-0.7-9.6-2
					c-2.7-1.3-4.9-3.2-6.4-5.6c-1.5-2.4-2.2-5.4-2.2-8.8s0.7-6.3,2.2-8.7s3.6-4.3,6.3-5.6c2.7-1.3,6-2,9.8-2c2.4,0,4.6,0.2,6.5,0.7
					s3.5,1.1,4.8,1.8v7.7h-0.4c-0.8-3-2.1-5.1-4-6.4c-1.8-1.3-4-1.9-6.4-1.9s-4.5,0.6-6.2,1.8s-3,2.8-4,5c-0.9,2.1-1.4,4.7-1.4,7.7
					s0.4,5.5,1.3,7.7s2.1,3.8,3.8,5c1.6,1.2,3.6,1.8,5.8,1.9c2.3,0,4.3-0.4,5.9-1.1c1.6-0.8,2.9-2,3.8-3.7c1-1.7,1.7-4.1,2.2-7h0.5
					V37z"/>
				<path d="M59.8,22.6c2.4,0,4.6,0.3,6.5,1c1.9,0.6,3.6,1.6,5,2.8c1.4,1.2,2.5,2.7,3.3,4.5c0.8,1.8,1.1,3.7,1.1,5.9
					s-0.4,4.1-1.1,5.8c-0.8,1.7-1.9,3.2-3.3,4.4s-3.1,2.2-5,2.8c-2,0.6-4.1,1-6.5,1s-4.5-0.3-6.5-1c-2-0.6-3.6-1.6-5-2.8
					s-2.5-2.7-3.2-4.4c-0.8-1.7-1.1-3.7-1.1-5.8c0-2.2,0.4-4.2,1.1-5.9c0.7-1.7,1.8-3.2,3.2-4.5c1.4-1.2,3.1-2.2,5-2.8
					C55.3,22.9,57.4,22.6,59.8,22.6z M59.8,49c1.8,0,3.4-0.5,4.8-1.5s2.4-2.4,3.1-4.3c0.7-1.8,1.1-4,1.1-6.5s-0.4-4.7-1.1-6.6
					c-0.7-1.8-1.8-3.3-3.1-4.3c-1.4-1-3-1.5-4.8-1.5s-3.4,0.5-4.7,1.5s-2.4,2.4-3.1,4.3c-0.8,1.8-1.1,4-1.1,6.6
					c0,2.5,0.4,4.7,1.1,6.5s1.8,3.2,3.1,4.3C56.4,48.5,58,49,59.8,49z"/>
				<path d="M81.4,47.3v2.9H77v-0.5h0.6c0.7,0,1.4-0.2,2-0.6c0.6-0.4,0.9-1,1-1.8C80.6,47.3,81.4,47.3,81.4,47.3z M84,22.6h0.4
					l1.5,4.3l-2.8,23.3h-2.9L84,22.6z M83.3,47.9c0,0.3,0.1,0.7,0.3,1.1c0.2,0.4,0.7,0.7,1.3,0.7h0.6v0.5h-2.7l0.3-2.2L83.3,47.9
					L83.3,47.9z M84.4,22.6l13.3,19.9L95.3,51l-12-18.1L84.4,22.6z M109,22.6l0.4,4.6L97.3,46.4c-0.5,1-0.9,1.8-1.2,2.5
					c-0.3,0.7-0.4,1.4-0.4,2.1h-0.4l-1.8-3.7L109,22.6z M106.2,47.9h0.3l0.3,2.2H104v-0.5h0.6c0.7,0,1.1-0.2,1.3-0.7
					C106.2,48.6,106.3,48.2,106.2,47.9z M109.5,22.6l4,27.6h-6.9l-2.2-16.4l4.7-11.2C109.1,22.6,109.5,22.6,109.5,22.6z M112.2,47.3
					h0.9c0.2,0.8,0.5,1.4,1.1,1.8c0.6,0.4,1.2,0.6,1.9,0.6h0.6v0.5h-4.4L112.2,47.3L112.2,47.3z"/>
				<path d="M120.2,47.3v2.9h-4.4v-0.5h0.6c0.8,0,1.4-0.2,2-0.6c0.6-0.4,0.9-1,1-1.8C119.4,47.3,120.2,47.3,120.2,47.3z M122.9,22.6
					h0.4l1.5,4.3L122,50.2h-3L122.9,22.6z M122.1,47.9c0,0.3,0.1,0.7,0.3,1.1c0.2,0.4,0.7,0.7,1.3,0.7h0.6v0.5h-2.7l0.3-2.2
					L122.1,47.9L122.1,47.9z M123.2,22.6l13.3,19.9l-2.4,8.5l-12-18.1L123.2,22.6z M147.9,22.6l0.4,4.6l-12.1,19.2
					c-0.5,1-0.9,1.8-1.2,2.5s-0.4,1.4-0.4,2.1h-0.4l-1.8-3.7L147.9,22.6z M145,47.9h0.3l0.3,2.2h-2.7v-0.5h0.6
					c0.7,0,1.1-0.2,1.3-0.7C145,48.6,145.1,48.2,145,47.9z M148.3,22.6l4,27.6h-6.9l-2.2-16.4l4.7-11.2
					C147.9,22.6,148.3,22.6,148.3,22.6z M151,47.3h0.9c0.2,0.8,0.5,1.4,1.1,1.8c0.6,0.4,1.2,0.6,1.9,0.6h0.6v0.5H151V47.3z"/>
				<path d="M159,23.2v2.3h-0.1c0-0.6-0.2-1-0.6-1.4c-0.4-0.4-0.9-0.5-1.4-0.5h-0.6v-0.4H159z M165.4,23.2v17c0,2.8,0.6,4.9,1.9,6.5
					c1.3,1.6,3.1,2.3,5.3,2.3c2.4,0,4.2-0.7,5.5-2.2s2-3.5,2-6.1V23.2h3v17.2c0,3.2-1,5.7-2.9,7.6c-2,1.9-4.7,2.8-8.3,2.8
					c-4.3,0-7.6-0.9-9.7-2.8c-2.1-1.8-3.2-4.4-3.2-7.6V23.2H165.4z M168,23.2v0.4h-0.7c-0.5,0-1,0.2-1.4,0.5
					c-0.4,0.4-0.6,0.8-0.6,1.4h-0.1v-2.3H168z M180.2,23.2v2.3h-0.1c0-0.6-0.2-1-0.6-1.4c-0.4-0.4-0.9-0.5-1.4-0.5h-0.6v-0.4H180.2z
					 M185.8,23.2v0.4h-0.6c-0.6,0-1.1,0.2-1.5,0.5c-0.4,0.4-0.6,0.8-0.6,1.4H183v-2.3H185.8z"/>
				<path d="M191,47.4v2.7h-3.3v-0.5h0.7c0.7,0,1.3-0.2,1.8-0.7c0.5-0.4,0.7-1,0.7-1.6L191,47.4L191,47.4z M190.8,22.5l6.2,6.8v20.9
					h-6.2V27.7c0-1.5-0.2-3.2-0.5-5.1h0.5V22.5z M190.8,22.5l26.4,23.2l0.5,5l-26.4-23.2L190.8,22.5z M197,47.4
					c0,0.7,0.3,1.2,0.8,1.6c0.5,0.4,1,0.7,1.7,0.7h0.8v0.5H197V47.4L197,47.4z M211.5,25.9c0-0.7-0.3-1.2-0.7-1.6
					c-0.5-0.4-1-0.7-1.7-0.7h-0.8v-0.5h3.3L211.5,25.9L211.5,25.9z M217.6,23.2v22.3c0,1,0,2,0.1,2.8s0.2,1.6,0.3,2.5h-0.4l-6.2-7.2
					V23.2H217.6z M217.5,25.9v-2.7h3.4v0.5h-0.8c-0.7,0-1.2,0.2-1.7,0.7c-0.5,0.4-0.7,1-0.7,1.6h-0.2V25.9z"/>
				<path d="M226.6,26h-0.1c0-0.7-0.3-1.3-0.8-1.7c-0.5-0.5-1.1-0.7-1.8-0.7c0,0-0.2,0-0.6,0v-0.5h3.3L226.6,26L226.6,26z
					 M226.6,47.3v2.8h-3.3v-0.5c0.4,0,0.6,0,0.6,0c0.7,0,1.3-0.2,1.8-0.7s0.8-1,0.8-1.7h0.1L226.6,47.3L226.6,47.3z M232.9,23.2v27
					h-6.5v-27H232.9z M232.8,26v-2.8h3.2v0.5c-0.3,0-0.5,0-0.5,0c-0.7,0-1.3,0.2-1.8,0.7S233,25.3,232.8,26L232.8,26z M232.8,47.3
					L232.8,47.3c0.1,0.7,0.4,1.2,0.9,1.7s1.1,0.7,1.8,0.7c0.3,0,0.5,0,0.5,0v0.5h-3.2V47.3z"/>
				<path d="M238.1,22.4c0.3,0.1,0.7,0.2,1.2,0.3c0.5,0.1,1.1,0.2,1.8,0.3c0.6,0.1,1.2,0.1,1.8,0.1l-4.7,0.5L238.1,22.4L238.1,22.4z
					 M264.2,23.1v1.8h-26.1v-1.8H264.2z M242.6,24.8v0.1c-1.3,0-2.3,0.4-3,1.2c-0.7,0.8-1.1,1.8-1.1,3.1v0.4H238v-4.8H242.6z
					 M247.9,47.3v2.8h-3v-0.5h0.5c0.7,0,1.3-0.2,1.7-0.7C247.5,48.6,247.8,48,247.9,47.3L247.9,47.3z M254.3,23.3v26.9h-6.5V23.3
					H254.3z M254.2,47.3h0.1c0,0.7,0.2,1.2,0.7,1.7s1.1,0.7,1.7,0.7h0.5v0.5h-3.1L254.2,47.3L254.2,47.3z M264.2,22.4v1.1l-4.8-0.5
					c0.6,0,1.2,0,1.8-0.1c0.7-0.1,1.3-0.2,1.8-0.3C263.6,22.6,263.9,22.5,264.2,22.4z M264.2,24.8v4.8h-0.5v-0.4
					c0-1.3-0.3-2.3-1.1-3.1c-0.7-0.7-1.7-1.1-3-1.2v-0.1C259.6,24.8,264.2,24.8,264.2,24.8z"/>
				<path d="M275,26l-7.3-0.1c-0.4-0.6-1-1.2-1.7-1.6s-1.5-0.6-2.3-0.6h-0.5v-0.5h13.7v0.5h-0.5c-0.6,0-1.1,0.3-1.4,0.8
					C274.7,24.9,274.7,25.4,275,26z M273.4,23.2l8.5,14.6l-6,0.7L266,23.2H273.4z M275.8,47.3v2.8h-3.2v-0.5c0,0,0.2,0,0.5,0
					c0.7,0,1.3-0.2,1.8-0.7s0.7-1,0.8-1.7h0.1L275.8,47.3L275.8,47.3z M282.1,37.9v12.2h-6.5V38L282.1,37.9z M288.5,23.2h3.3
					l-10.2,15.6l-2.1-0.4L288.5,23.2z M282,47.3L282,47.3c0.1,0.7,0.4,1.2,0.9,1.7s1.1,0.7,1.7,0.7h0.5v0.5H282V47.3z M286.9,26
					c0.3-0.6,0.3-1.1,0-1.6s-0.8-0.7-1.4-0.7H285v-0.5h9.7v0.5h-0.6c-0.8,0-1.6,0.2-2.3,0.7c-0.7,0.4-1.3,1-1.7,1.6H286.9z"/>
			</g>
		</g>
		<g>
			<g class="st0">
				<path d="M19.7,79c0.6,0,1.3,0,2.2,0.1s1.8,0.1,2.7,0.2s1.8,0.2,2.5,0.3c0.7,0.1,1.2,0.2,1.5,0.3L28.1,86h-0.5
					c0-1.6-0.6-2.8-1.7-3.8c-1.2-0.9-2.7-1.4-4.6-1.4c-1.7,0-3.1,0.4-4.2,1.3s-1.6,1.9-1.7,3.1c0,0.9,0.3,1.7,0.9,2.3
					c0.6,0.7,1.4,1.3,2.3,1.8l8.6,5.6c1.4,0.8,2.4,1.8,3.1,3.1c0.7,1.3,1,2.7,0.9,4.4c-0.2,2.9-1.3,5.2-3.4,6.9
					c-2.1,1.6-4.9,2.5-8.5,2.5c-1.3,0-2.6-0.1-3.8-0.3c-1.2-0.2-2.3-0.5-3.3-0.9s-1.7-0.9-2.3-1.5c-0.2-0.7-0.3-1.5-0.3-2.4
					s0.2-1.9,0.4-2.8c0.3-1,0.6-1.8,1-2.4h0.4c-0.1,1.5,0.2,2.9,0.8,4.3c0.7,1.3,1.7,2.3,3,3.1c1.3,0.8,2.9,1.1,4.7,1.1
					c2,0,3.5-0.5,4.6-1.5s1.6-2.2,1.6-3.5c0-0.9-0.3-1.8-0.8-2.5c-0.6-0.7-1.5-1.5-2.7-2.2L14.5,95c-1.6-0.9-2.7-2.1-3.5-3.5
					c-0.7-1.4-1-2.9-0.9-4.6c0.1-1.6,0.6-2.9,1.4-4.1s1.9-2.1,3.2-2.8C16.2,79.4,17.8,79,19.7,79z M28.7,79.5l-0.1,0.9h-5.3v-0.9
					H28.7z"/>
				<path d="M61.8,99.9l0.5,6.8c-0.6,1-1.4,1.8-2.4,2.6c-1,0.8-2.3,1.4-3.7,1.8c-1.5,0.5-3.2,0.7-5.1,0.7c-3.4,0-6.3-0.6-8.7-1.7
					s-4.3-2.7-5.6-4.8c-1.3-2.1-2-4.6-2-7.6c0-2.9,0.6-5.5,1.9-7.5c1.3-2.1,3.2-3.7,5.6-4.8c2.4-1.1,5.3-1.7,8.7-1.7
					c2,0,3.9,0.2,5.7,0.6c1.8,0.4,3.2,0.9,4.4,1.5V93h-0.4c-0.8-2.8-1.9-4.7-3.6-5.8c-1.6-1.1-3.5-1.7-5.8-1.7c-2.2,0-4,0.5-5.5,1.5
					s-2.6,2.4-3.3,4.3c-0.7,1.8-1.1,4-1.1,6.4c0,2.5,0.4,4.7,1.1,6.5c0.7,1.8,1.8,3.3,3.2,4.3s3.1,1.6,5.1,1.6c2.1,0,3.9-0.3,5.3-1
					s2.5-1.7,3.3-3.2s1.4-3.4,1.8-5.9h0.6C61.8,100,61.8,99.9,61.8,99.9z"/>
				<path d="M68.8,87L68.8,87c-0.1-0.7-0.4-1.3-0.9-1.7c-0.5-0.5-1.1-0.7-1.8-0.7c0,0-0.2,0-0.6,0v-0.5h3.3V87z M68.8,108.3v2.8
					h-3.3v-0.5c0.4,0,0.6,0,0.6,0c0.7,0,1.3-0.2,1.8-0.7S68.7,108.9,68.8,108.3L68.8,108.3L68.8,108.3z M75.2,84.2v27h-6.5v-27H75.2
					z M75.1,87v-2.8h3.2v0.5c-0.3,0-0.5,0-0.5,0c-0.7,0-1.3,0.2-1.8,0.7C75.5,85.7,75.2,86.3,75.1,87L75.1,87z M75.1,108.3
					L75.1,108.3c0.1,0.7,0.4,1.2,0.9,1.7s1.1,0.7,1.8,0.7c0.3,0,0.5,0,0.5,0v0.5h-3.2C75.1,111.2,75.1,108.3,75.1,108.3z"/>
				<path d="M84.5,87L84.5,87c-0.1-0.7-0.4-1.3-0.8-1.7c-0.5-0.5-1-0.7-1.7-0.7c0,0-0.2,0-0.6,0v-0.5h3.3L84.5,87z M84.5,108.3
					l0.2,2.8h-3.3v-0.5c0.4,0,0.6,0,0.6,0c0.7,0,1.2-0.2,1.7-0.7C84.1,109.6,84.4,109,84.5,108.3L84.5,108.3z M90.9,84.2v27h-6.5
					v-27H90.9z M101.9,84.2V86H90.8v-1.8H101.9z M99.9,96.9v1.8h-9.1v-1.8H99.9z M101.4,109.4l1,1.8H90.7v-1.8H101.4z M104.3,102.9
					l-1.7,8.3h-7.8l1.4-1.8c1.3,0,2.4-0.3,3.4-0.8s1.9-1.3,2.6-2.2c0.7-1,1.3-2.1,1.7-3.4L104.3,102.9L104.3,102.9z M99.9,93v4H96
					v-0.1c1,0,1.9-0.4,2.5-1.1s0.9-1.5,0.9-2.5V93H99.9z M99.9,98.6v4h-0.4v-0.4c0-1-0.3-1.8-0.9-2.5s-1.4-1-2.5-1v-0.1H99.9z
					 M101.9,83.5v1.1l-4.7-0.4c0.9,0,1.8-0.1,2.7-0.2S101.5,83.6,101.9,83.5z M101.9,85.9v4.8h-0.5v-0.4c0-1.3-0.4-2.4-1.1-3.1
					s-1.7-1.1-3-1.2v-0.1C97.3,85.9,101.9,85.9,101.9,85.9z"/>
				<path d="M109.5,108.4v2.7h-3.3v-0.5h0.7c0.7,0,1.3-0.2,1.8-0.7c0.5-0.4,0.7-1,0.7-1.6L109.5,108.4L109.5,108.4z M109.3,83.5
					l6.2,6.8v20.9h-6.2V88.7c0-1.5-0.2-3.2-0.5-5.1L109.3,83.5L109.3,83.5z M109.3,83.5l26.4,23.2l0.5,5l-26.4-23.2L109.3,83.5z
					 M115.5,108.4c0,0.7,0.3,1.2,0.8,1.6s1,0.7,1.7,0.7h0.8v0.5h-3.3V108.4L115.5,108.4z M130,86.9c0-0.7-0.3-1.2-0.7-1.6
					c-0.5-0.4-1-0.7-1.7-0.7h-0.8v-0.5h3.3L130,86.9L130,86.9z M136.1,84.2v22.3c0,1,0,2,0.1,2.8s0.2,1.6,0.3,2.5h-0.4l-6.2-7.2
					V84.2H136.1z M136,86.9v-2.7h3.4v0.5h-0.8c-0.7,0-1.2,0.2-1.7,0.7c-0.5,0.4-0.7,1-0.7,1.6L136,86.9L136,86.9z"/>
				<path d="M168.8,99.9l0.5,6.8c-0.6,1-1.4,1.8-2.4,2.6c-1,0.8-2.3,1.4-3.7,1.8s-3.2,0.7-5.1,0.7c-3.4,0-6.3-0.6-8.7-1.7
					s-4.3-2.7-5.6-4.8c-1.3-2.1-2-4.6-2-7.6c0-2.9,0.6-5.5,1.9-7.5c1.3-2.1,3.2-3.7,5.6-4.8s5.3-1.7,8.7-1.7c2,0,3.9,0.2,5.7,0.6
					s3.2,0.9,4.4,1.5V93h-0.4c-0.8-2.8-1.9-4.7-3.6-5.8c-1.6-1.1-3.5-1.7-5.8-1.7c-2.2,0-4,0.5-5.5,1.5s-2.5,2.4-3.3,4.3
					c-0.7,1.8-1.1,4-1.1,6.4c0,2.5,0.4,4.7,1.1,6.5c0.7,1.8,1.8,3.3,3.2,4.3s3.1,1.6,5.1,1.6c2.1,0,3.9-0.3,5.3-1
					c1.4-0.7,2.5-1.7,3.3-3.2s1.4-3.4,1.8-5.9h0.6V99.9z"/>
				<path d="M175.6,87L175.6,87c-0.1-0.7-0.4-1.3-0.8-1.7c-0.5-0.5-1-0.7-1.7-0.7c0,0-0.2,0-0.6,0v-0.5h3.3L175.6,87z M175.6,108.3
					l0.2,2.8h-3.3v-0.5c0.4,0,0.6,0,0.6,0c0.7,0,1.2-0.2,1.7-0.7C175.3,109.6,175.5,109,175.6,108.3L175.6,108.3z M182,84.2v27h-6.5
					v-27H182z M193.1,84.2V86H182v-1.8H193.1z M191,96.9v1.8h-9.1v-1.8H191z M192.6,109.4l1,1.8h-11.7v-1.8H192.6z M195.4,102.9
					l-1.7,8.3h-7.8l1.4-1.8c1.3,0,2.4-0.3,3.4-0.8s1.9-1.3,2.6-2.2c0.7-1,1.3-2.1,1.7-3.4L195.4,102.9L195.4,102.9z M191,93v4h-3.9
					v-0.1c1,0,1.9-0.4,2.5-1.1s0.9-1.5,0.9-2.5V93H191z M191,98.6v4h-0.5v-0.4c0-1-0.3-1.8-0.9-2.5s-1.4-1-2.5-1v-0.1H191z
					 M193.1,83.5v1.1l-4.7-0.4c0.9,0,1.8-0.1,2.7-0.2C192,83.8,192.7,83.6,193.1,83.5z M193.1,85.9v4.8h-0.4v-0.4
					c0-1.3-0.4-2.4-1.1-3.1c-0.7-0.7-1.7-1.1-3-1.2v-0.1C188.6,85.9,193.1,85.9,193.1,85.9z"/>
			</g>
		</g>
		<g>
			<g class="st0">
				<path d="M11.8,168.9v3.3h-5v-0.5c0,0,0.3,0,0.7,0c0.8,0,1.5-0.2,2.2-0.7s1-1.2,1.1-2.1H11.8z M14.6,140H15l1.6,4.5l-3,27.6h-3.1
					L14.6,140z M13.8,169.6C13.8,169.6,13.8,169.7,13.8,169.6c0,0.1,0,0.2,0,0.2c0,0.5,0.2,0.9,0.5,1.3c0.3,0.4,0.8,0.6,1.2,0.6h0.7
					v0.4h-2.7v-2.6h0.3V169.6z M15,140l14.7,24.2l-2.6,8.9l-13.3-22.4L15,140z M42.4,140l0.4,4.9l-13.4,23.2c-0.6,1-1,2-1.3,2.7
					c-0.3,0.8-0.4,1.5-0.4,2.2h-0.4l-1.8-3.9L42.4,140z M39.5,169.6h0.3v2.6h-2.7v-0.4h0.7c0.5,0,0.9-0.2,1.3-0.6
					c0.3-0.4,0.5-0.8,0.5-1.3C39.5,169.8,39.5,169.7,39.5,169.6C39.5,169.7,39.5,169.6,39.5,169.6z M42.8,140l4.3,32.1h-7.2
					l-2.2-20.7l4.8-11.4L42.8,140L42.8,140z M45.6,168.9h0.9c0.1,0.9,0.5,1.6,1.2,2.1s1.3,0.7,2.1,0.7h0.7v0.5h-5L45.6,168.9
					L45.6,168.9z"/>
				<path d="M54.1,145.2v2.3H54c0-0.6-0.2-1-0.6-1.4s-0.9-0.5-1.4-0.5h-0.6v-0.4L54.1,145.2L54.1,145.2z M60.5,145.2v17
					c0,2.8,0.6,4.9,1.9,6.5s3.1,2.3,5.3,2.3c2.4,0,4.2-0.7,5.5-2.2s2-3.5,2-6.1v-17.5h3v17.2c0,3.2-1,5.7-2.9,7.6
					c-2,1.9-4.7,2.8-8.3,2.8c-4.4,0-7.6-0.9-9.7-2.8c-2.1-1.8-3.2-4.4-3.2-7.6v-17.2H60.5z M63.2,145.2v0.4h-0.7
					c-0.5,0-1,0.2-1.4,0.5c-0.4,0.4-0.6,0.8-0.6,1.4h-0.1v-2.3L63.2,145.2L63.2,145.2z M75.4,145.2v2.3h-0.1c0-0.6-0.2-1-0.6-1.4
					s-0.9-0.5-1.4-0.5h-0.6v-0.4L75.4,145.2L75.4,145.2z M80.9,145.2v0.4h-0.6c-0.6,0-1.1,0.2-1.5,0.5c-0.4,0.4-0.6,0.8-0.6,1.4
					h-0.1v-2.3L80.9,145.2L80.9,145.2z"/>
				<path d="M92.6,144.6c0.6,0,1.3,0,2.2,0.1c0.9,0.1,1.7,0.1,2.5,0.2c0.8,0.1,1.6,0.2,2.2,0.3s1.1,0.2,1.3,0.3l-0.6,5.5h-0.4
					c0-1.4-0.5-2.5-1.4-3.3c-1-0.8-2.3-1.2-4.1-1.2c-1.4,0-2.6,0.3-3.5,0.9s-1.4,1.5-1.4,2.5c-0.1,0.5,0,1,0.3,1.5
					c0.3,0.4,0.6,0.8,1.1,1.1s1,0.7,1.6,1l7.1,4.4c1.2,0.6,2.1,1.5,2.8,2.6c0.7,1.1,1,2.5,0.9,4.1c-0.1,1.7-0.6,3.1-1.5,4.4
					c-0.9,1.2-2.1,2.2-3.6,2.8s-3.4,1-5.5,1c-1.3,0-2.5-0.1-3.6-0.3s-2.1-0.5-2.9-0.9s-1.4-0.8-1.8-1.2c-0.2-0.6-0.3-1.3-0.3-2.2
					s0.2-1.7,0.4-2.6c0.2-0.9,0.5-1.6,0.9-2.1h0.4c-0.1,1.3,0.2,2.6,0.7,3.7c0.6,1.1,1.4,2,2.6,2.7c1.1,0.7,2.5,1,4.1,1
					c1.7,0,3-0.4,3.9-1.2s1.3-1.8,1.3-2.8c0-0.8-0.3-1.5-0.8-2.2c-0.5-0.6-1.4-1.3-2.6-1.9l-6.4-4c-1.5-0.8-2.6-1.8-3.3-3.1
					s-0.9-2.7-0.7-4.2c0.1-1.4,0.6-2.7,1.3-3.7s1.6-1.8,2.8-2.3S91.1,144.6,92.6,144.6z M100.9,145v0.8H96V145H100.9z"/>
				<path d="M109.7,148L109.7,148c-0.1-0.7-0.4-1.3-0.8-1.7c-0.5-0.5-1-0.7-1.7-0.7c0,0-0.2,0-0.6,0v-0.5h3.3L109.7,148z
					 M109.7,169.3l0.2,2.8h-3.3v-0.5c0.4,0,0.6,0,0.6,0c0.7,0,1.2-0.2,1.7-0.7C109.3,170.6,109.6,170,109.7,169.3L109.7,169.3z
					 M116.1,145.2v27h-6.5v-27H116.1z M127.1,145.2v1.8H116v-1.8H127.1z M125.1,157.9v1.8H116v-1.8H125.1z M126.6,170.4l1,1.8H116
					v-1.8H126.6z M129.5,163.9l-1.7,8.3H120l1.4-1.8c1.3,0,2.4-0.3,3.4-0.8s1.9-1.3,2.6-2.2c0.7-1,1.3-2.1,1.7-3.4h0.4L129.5,163.9
					L129.5,163.9z M125.1,154v4h-3.9v-0.1c1,0,1.9-0.4,2.5-1.1s0.9-1.5,0.9-2.5V154H125.1z M125.1,159.6v4h-0.5v-0.4
					c0-1-0.3-1.8-0.9-2.5s-1.4-1-2.5-1v-0.1H125.1z M127.1,144.5v1.1l-4.7-0.4c0.9,0,1.8-0.1,2.7-0.2
					C126.1,144.8,126.7,144.6,127.1,144.5z M127.1,146.9v4.8h-0.4v-0.4c0-1.3-0.4-2.4-1.1-3.1c-0.7-0.7-1.7-1.1-3-1.2v-0.1H127.1z"
					/>
				<path d="M134.4,145.2v2.3h-0.1c0-0.6-0.2-1-0.6-1.4c-0.4-0.4-0.9-0.5-1.4-0.5h-0.6v-0.4L134.4,145.2L134.4,145.2z M140.8,145.2
					v17c0,2.8,0.6,4.9,1.9,6.5c1.3,1.6,3.1,2.3,5.3,2.3c2.4,0,4.2-0.7,5.5-2.2s2-3.5,2-6.1v-17.5h3v17.2c0,3.2-1,5.7-2.9,7.6
					c-2,1.9-4.7,2.8-8.3,2.8c-4.3,0-7.6-0.9-9.7-2.8c-2.1-1.8-3.2-4.4-3.2-7.6v-17.2H140.8z M143.5,145.2v0.4h-0.7
					c-0.5,0-1,0.2-1.4,0.5c-0.4,0.4-0.6,0.8-0.6,1.4h-0.1v-2.3L143.5,145.2L143.5,145.2z M155.7,145.2v2.3h-0.1c0-0.6-0.2-1-0.6-1.4
					c-0.4-0.4-0.9-0.5-1.4-0.5H153v-0.4L155.7,145.2L155.7,145.2z M161.2,145.2v0.4h-0.6c-0.6,0-1.1,0.2-1.5,0.5
					c-0.4,0.4-0.6,0.8-0.6,1.4h-0.1v-2.3L161.2,145.2L161.2,145.2z"/>
				<path d="M166.2,169.3v2.9h-4.4v-0.5h0.6c0.7,0,1.4-0.2,2-0.6c0.6-0.4,0.9-1,1-1.8L166.2,169.3L166.2,169.3z M168.8,144.6h0.4
					l1.5,4.3l-2.8,23.3H165L168.8,144.6z M168.1,169.9c0,0.3,0.1,0.7,0.3,1.1c0.2,0.4,0.7,0.7,1.3,0.7h0.6v0.5h-2.7l0.3-2.2h0.2
					L168.1,169.9L168.1,169.9z M169.2,144.6l13.3,19.9l-2.4,8.5l-12-18.1L169.2,144.6z M193.9,144.6l0.4,4.6l-12.1,19.2
					c-0.5,1-0.9,1.8-1.2,2.5s-0.4,1.4-0.4,2.1h-0.4l-1.8-3.7L193.9,144.6z M191,169.9h0.3l0.3,2.2h-2.7v-0.5h0.6
					c0.7,0,1.1-0.2,1.3-0.7C191,170.6,191.1,170.2,191,169.9z M194.3,144.6l4,27.6h-6.9l-2.2-16.4l4.7-11.2L194.3,144.6L194.3,144.6
					z M197,169.3h0.9c0.1,0.8,0.5,1.4,1.1,1.8c0.6,0.4,1.2,0.6,1.9,0.6h0.6v0.5H197V169.3z"/>
			</g>
		</g>
	</g>
	<g id="icon-1719742white" transform="translate(-53 -36.876)">
		<rect id="Retângulo_1" x="133.3" y="154.2" width="4" height="8"/>
		<rect id="Retângulo_2" x="133.3" y="106.2" width="4" height="8"/>
		<rect id="Retângulo_3" x="107.3" y="132.2" width="8" height="4"/>
		<rect id="Retângulo_4" x="155.3" y="132.2" width="8" height="4"/>
		
			<rect id="Retângulo_5" x="150.3" y="147.1" transform="matrix(0.7071 -0.7071 0.7071 0.7071 -62.2251 151.959)" width="4" height="8"/>
		
			<rect id="Retângulo_6" x="116.2" y="113.2" transform="matrix(0.7071 -0.7071 0.7071 0.7071 -48.2558 117.8921)" width="4" height="8"/>
		
			<rect id="Retângulo_7" x="114.3" y="149.2" transform="matrix(0.7071 -0.7071 0.7071 0.7071 -72.272 127.9399)" width="8" height="4"/>
		
			<rect id="Retângulo_8" x="148.2" y="115.2" transform="matrix(0.7071 -0.7071 0.7071 0.7071 -38.3107 141.9389)" width="8" height="4"/>
		<path id="Caminho_2" d="M160.8,202.2c-7.2,0-15.4-2.8-24-8.2c-13.4-8.5-26.2-22.7-36.1-39.8S85,118.9,84.3,103
			c-0.8-16.3,4-28.3,13.5-33.8s22.2-3.6,36,5.1c13.4,8.5,26.2,22.7,36.1,39.8s15.7,35.3,16.4,51.2c0.7,16.3-4.1,28.3-13.6,33.8
			C169,201.2,164.9,202.2,160.8,202.2z M109.8,70.2c-3.5-0.1-7,0.8-10.1,2.6c-8.1,4.7-12.2,15.4-11.6,30.1
			c0.7,15.2,6.3,32.7,15.9,49.4c9.6,16.6,21.9,30.3,34.8,38.5c12.4,7.9,23.8,9.7,31.9,5.1c8.1-4.7,12.2-15.4,11.6-30.1
			c-0.7-15.2-6.3-32.7-15.9-49.4c-9.6-16.6-21.9-30.3-34.8-38.5C123.8,72.7,116.3,70.2,109.8,70.2z"/>
		<path id="Caminho_3" d="M109.8,202.2c-4.2,0.1-8.4-1-12-3.1c-9.5-5.5-14.3-17.4-13.6-33.8c0.7-15.8,6.5-34,16.4-51.2
			s22.7-31.3,36.1-39.8c13.8-8.8,26.6-10.6,36-5.1c9.5,5.5,14.3,17.4,13.6,33.8c-0.7,15.8-6.5,34-16.4,51.2s-22.7,31.3-36.1,39.8
			C125.3,199.5,117.1,202.2,109.8,202.2z M160.8,70.2c-6.5,0-13.9,2.6-21.8,7.6c-12.8,8.2-25.2,21.8-34.8,38.5
			c-9.6,16.6-15.2,34.1-15.9,49.4c-0.7,14.7,3.5,25.4,11.6,30.1s19.4,2.9,31.9-5.1c12.8-8.2,25.2-21.8,34.8-38.5
			c9.6-16.6,15.2-34.1,15.9-49.4c0.6-14.7-3.5-25.4-11.6-30.1C167.8,71,164.3,70.1,160.8,70.2z"/>
		<path id="Caminho_4" d="M135.3,174.2c-19.8,0-38.5-4-52.5-11.3c-14.5-7.6-22.5-17.8-22.5-28.7s8-21.1,22.5-28.6
			c14-7.3,32.7-11.4,52.5-11.4s38.5,4,52.5,11.3c14.5,7.6,22.5,17.8,22.5,28.7s-8,21.1-22.5,28.6
			C173.8,170.1,155.1,174.2,135.3,174.2z M135.3,98.2c-39.1,0-71,16.1-71,36s31.9,36,71,36s71-16.1,71-36S174.4,98.2,135.3,98.2z"/>
		<circle id="Elipse_1" class="st1" cx="135.3" cy="134.2" r="15"/>
		<path id="Caminho_5" d="M135.3,151.2c-9.4,0-17-7.6-17-17s7.6-17,17-17s17,7.6,17,17C152.3,143.5,144.7,151.2,135.3,151.2
			L135.3,151.2z M135.3,121.2c-7.2,0-13,5.8-13,13s5.8,13,13,13s13-5.8,13-13S142.5,121.2,135.3,121.2L135.3,121.2z"/>
	</g>
</g>
</svg>
