<?xml version="1.0" encoding="utf-8"?>
<!-- Generator: Adobe Illustrator 26.1.0, SVG Export Plug-In . SVG Version: 6.00 Build 0)  -->
<svg version="1.1" id="Camada_1" xmlns="http://www.w3.org/2000/svg" xmlns:xlink="http://www.w3.org/1999/xlink" x="0px" y="0px"
	 viewBox="0 0 500 200" style="enable-background:new 0 0 500 200;" xml:space="preserve">
<style type="text/css">
	.st0{enable-background:new    ;}
	.st1{fill:#F07215;}
</style>
<g id="logo_grande" transform="translate(0.125)">
	<g id="Componente_1_1" transform="translate(150)">
		<g>
			<g class="st0">
				<path d="M54.7,37l0.4,7.7c-0.7,1.1-1.5,2.1-2.7,3c-1.1,0.9-2.5,1.6-4.1,2.2c-1.7,0.6-3.6,0.8-5.9,0.8c-3.7,0-6.9-0.7-9.6-2
					c-2.7-1.3-4.9-3.2-6.4-5.6c-1.5-2.4-2.2-5.4-2.2-8.8s0.7-6.3,2.2-8.7s3.6-4.3,6.3-5.6c2.7-1.3,6-2,9.8-2c2.4,0,4.6,0.2,6.5,0.7
					s3.5,1.1,4.8,1.8v7.7h-0.4c-0.8-3-2.1-5.1-4-6.4c-1.8-1.3-4-1.9-6.4-1.9s-4.5,0.6-6.2,1.8s-3,2.8-4,5c-0.9,2.1-1.4,4.7-1.4,7.7
					s0.4,5.5,1.3,7.7s2.1,3.8,3.8,5c1.6,1.2,3.6,1.8,5.8,1.9c2.3,0,4.3-0.4,5.9-1.1c1.6-0.8,2.9-2,3.8-3.7c1-1.7,1.7-4.1,2.2-7h0.5
					V37z"/>
				<path d="M74.8,22.6c2.4,0,4.6,0.3,6.5,1c1.9,0.6,3.6,1.6,5,2.8c1.4,1.2,2.5,2.7,3.3,4.5c0.8,1.8,1.1,3.7,1.1,5.9
					s-0.4,4.1-1.1,5.8c-0.8,1.7-1.9,3.2-3.3,4.4s-3.1,2.2-5,2.8c-2,0.6-4.1,1-6.5,1s-4.5-0.3-6.5-1c-2-0.6-3.6-1.6-5-2.8
					s-2.5-2.7-3.2-4.4c-0.8-1.7-1.1-3.7-1.1-5.8c0-2.2,0.4-4.2,1.1-5.9c0.7-1.7,1.8-3.2,3.2-4.5c1.4-1.2,3.1-2.2,5-2.8
					C70.3,22.9,72.4,22.6,74.8,22.6z M74.8,49c1.8,0,3.4-0.5,4.8-1.5s2.4-2.4,3.1-4.3c0.7-1.8,1.1-4,1.1-6.5s-0.4-4.7-1.1-6.6
					c-0.7-1.8-1.8-3.3-3.1-4.3c-1.4-1-3-1.5-4.8-1.5s-3.4,0.5-4.7,1.5s-2.4,2.4-3.1,4.3c-0.8,1.8-1.1,4-1.1,6.6
					c0,2.5,0.4,4.7,1.1,6.5s1.8,3.2,3.1,4.3C71.4,48.5,73,49,74.8,49z"/>
				<path d="M96.4,47.3v2.9H92v-0.5h0.6c0.7,0,1.4-0.2,2-0.6c0.6-0.4,0.9-1,1-1.8C95.6,47.3,96.4,47.3,96.4,47.3z M99,22.6h0.4
					l1.5,4.3l-2.8,23.3h-2.9L99,22.6z M98.3,47.9c0,0.3,0.1,0.7,0.3,1.1c0.2,0.4,0.7,0.7,1.3,0.7h0.6v0.5h-2.7l0.3-2.2L98.3,47.9
					L98.3,47.9z M99.4,22.6l13.3,19.9l-2.4,8.5l-12-18.1L99.4,22.6z M124,22.6l0.4,4.6l-12.1,19.2c-0.5,1-0.9,1.8-1.2,2.5
					c-0.3,0.7-0.4,1.4-0.4,2.1h-0.4l-1.8-3.7L124,22.6z M121.2,47.9h0.3l0.3,2.2H119v-0.5h0.6c0.7,0,1.1-0.2,1.3-0.7
					C121.2,48.6,121.3,48.2,121.2,47.9z M124.5,22.6l4,27.6h-6.9l-2.2-16.4l4.7-11.2C124.1,22.6,124.5,22.6,124.5,22.6z M127.2,47.3
					h0.9c0.2,0.8,0.5,1.4,1.1,1.8c0.6,0.4,1.2,0.6,1.9,0.6h0.6v0.5h-4.4L127.2,47.3L127.2,47.3z"/>
				<path d="M135.2,47.3v2.9h-4.4v-0.5h0.6c0.8,0,1.4-0.2,2-0.6c0.6-0.4,0.9-1,1-1.8C134.4,47.3,135.2,47.3,135.2,47.3z M137.9,22.6
					h0.4l1.5,4.3L137,50.2h-3L137.9,22.6z M137.1,47.9c0,0.3,0.1,0.7,0.3,1.1c0.2,0.4,0.7,0.7,1.3,0.7h0.6v0.5h-2.7l0.3-2.2
					L137.1,47.9L137.1,47.9z M138.2,22.6l13.3,19.9l-2.4,8.5l-12-18.1L138.2,22.6z M162.9,22.6l0.4,4.6l-12.1,19.2
					c-0.5,1-0.9,1.8-1.2,2.5s-0.4,1.4-0.4,2.1h-0.4l-1.8-3.7L162.9,22.6z M160,47.9h0.3l0.3,2.2h-2.7v-0.5h0.6
					c0.7,0,1.1-0.2,1.3-0.7C160,48.6,160.1,48.2,160,47.9z M163.3,22.6l4,27.6h-6.9l-2.2-16.4l4.7-11.2
					C162.9,22.6,163.3,22.6,163.3,22.6z M166,47.3h0.9c0.2,0.8,0.5,1.4,1.1,1.8c0.6,0.4,1.2,0.6,1.9,0.6h0.6v0.5H166V47.3z"/>
				<path d="M174,23.2v2.3h-0.1c0-0.6-0.2-1-0.6-1.4c-0.4-0.4-0.9-0.5-1.4-0.5h-0.6v-0.4H174z M180.4,23.2v17c0,2.8,0.6,4.9,1.9,6.5
					c1.3,1.6,3.1,2.3,5.3,2.3c2.4,0,4.2-0.7,5.5-2.2s2-3.5,2-6.1V23.2h3v17.2c0,3.2-1,5.7-2.9,7.6c-2,1.9-4.7,2.8-8.3,2.8
					c-4.3,0-7.6-0.9-9.7-2.8c-2.1-1.8-3.2-4.4-3.2-7.6V23.2H180.4z M183,23.2v0.4h-0.7c-0.5,0-1,0.2-1.4,0.5
					c-0.4,0.4-0.6,0.8-0.6,1.4h-0.1v-2.3H183z M195.2,23.2v2.3h-0.1c0-0.6-0.2-1-0.6-1.4c-0.4-0.4-0.9-0.5-1.4-0.5h-0.6v-0.4H195.2z
					 M200.8,23.2v0.4h-0.6c-0.6,0-1.1,0.2-1.5,0.5c-0.4,0.4-0.6,0.8-0.6,1.4H198v-2.3H200.8z"/>
				<path d="M206,47.4v2.7h-3.3v-0.5h0.7c0.7,0,1.3-0.2,1.8-0.7c0.5-0.4,0.7-1,0.7-1.6L206,47.4L206,47.4z M205.8,22.5l6.2,6.8v20.9
					h-6.2V27.7c0-1.5-0.2-3.2-0.5-5.1h0.5V22.5z M205.8,22.5l26.4,23.2l0.5,5l-26.4-23.2L205.8,22.5z M212,47.4
					c0,0.7,0.3,1.2,0.8,1.6c0.5,0.4,1,0.7,1.7,0.7h0.8v0.5H212V47.4L212,47.4z M226.5,25.9c0-0.7-0.3-1.2-0.7-1.6
					c-0.5-0.4-1-0.7-1.7-0.7h-0.8v-0.5h3.3L226.5,25.9L226.5,25.9z M232.6,23.2v22.3c0,1,0,2,0.1,2.8s0.2,1.6,0.3,2.5h-0.4l-6.2-7.2
					V23.2H232.6z M232.5,25.9v-2.7h3.4v0.5h-0.8c-0.7,0-1.2,0.2-1.7,0.7c-0.5,0.4-0.7,1-0.7,1.6h-0.2V25.9z"/>
				<path d="M241.6,26h-0.1c0-0.7-0.3-1.3-0.8-1.7c-0.5-0.5-1.1-0.7-1.8-0.7c0,0-0.2,0-0.6,0v-0.5h3.3L241.6,26L241.6,26z
					 M241.6,47.3v2.8h-3.3v-0.5c0.4,0,0.6,0,0.6,0c0.7,0,1.3-0.2,1.8-0.7s0.8-1,0.8-1.7h0.1L241.6,47.3L241.6,47.3z M247.9,23.2v27
					h-6.5v-27H247.9z M247.8,26v-2.8h3.2v0.5c-0.3,0-0.5,0-0.5,0c-0.7,0-1.3,0.2-1.8,0.7S248,25.3,247.8,26L247.8,26z M247.8,47.3
					L247.8,47.3c0.1,0.7,0.4,1.2,0.9,1.7s1.1,0.7,1.8,0.7c0.3,0,0.5,0,0.5,0v0.5h-3.2V47.3z"/>
				<path d="M253.1,22.4c0.3,0.1,0.7,0.2,1.2,0.3c0.5,0.1,1.1,0.2,1.8,0.3c0.6,0.1,1.2,0.1,1.8,0.1l-4.7,0.5L253.1,22.4L253.1,22.4z
					 M279.2,23.1v1.8h-26.1v-1.8H279.2z M257.6,24.8v0.1c-1.3,0-2.3,0.4-3,1.2c-0.7,0.8-1.1,1.8-1.1,3.1v0.4H253v-4.8H257.6z
					 M262.9,47.3v2.8h-3v-0.5h0.5c0.7,0,1.3-0.2,1.7-0.7C262.5,48.6,262.8,48,262.9,47.3L262.9,47.3z M269.3,23.3v26.9h-6.5V23.3
					H269.3z M269.2,47.3h0.1c0,0.7,0.2,1.2,0.7,1.7s1.1,0.7,1.7,0.7h0.5v0.5h-3.1L269.2,47.3L269.2,47.3z M279.2,22.4v1.1l-4.8-0.5
					c0.6,0,1.2,0,1.8-0.1c0.7-0.1,1.3-0.2,1.8-0.3C278.6,22.6,278.9,22.5,279.2,22.4z M279.2,24.8v4.8h-0.5v-0.4
					c0-1.3-0.3-2.3-1.1-3.1c-0.7-0.7-1.7-1.1-3-1.2v-0.1C274.6,24.8,279.2,24.8,279.2,24.8z"/>
				<path d="M290,26l-7.3-0.1c-0.4-0.6-1-1.2-1.7-1.6s-1.5-0.6-2.3-0.6h-0.5v-0.5h13.7v0.5h-0.5c-0.6,0-1.1,0.3-1.4,0.8
					C289.7,24.9,289.7,25.4,290,26z M288.4,23.2l8.5,14.6l-6,0.7L281,23.2H288.4z M290.8,47.3v2.8h-3.2v-0.5c0,0,0.2,0,0.5,0
					c0.7,0,1.3-0.2,1.8-0.7s0.7-1,0.8-1.7h0.1L290.8,47.3L290.8,47.3z M297.1,37.9v12.2h-6.5V38L297.1,37.9z M303.5,23.2h3.3
					l-10.2,15.6l-2.1-0.4L303.5,23.2z M297,47.3L297,47.3c0.1,0.7,0.4,1.2,0.9,1.7s1.1,0.7,1.7,0.7h0.5v0.5H297V47.3z M301.9,26
					c0.3-0.6,0.3-1.1,0-1.6s-0.8-0.7-1.4-0.7H300v-0.5h9.7v0.5h-0.6c-0.8,0-1.6,0.2-2.3,0.7c-0.7,0.4-1.3,1-1.7,1.6H301.9z"/>
			</g>
		</g>
		<g>
			<g class="st0">
				<path d="M34.7,79c0.6,0,1.3,0,2.2,0.1s1.8,0.1,2.7,0.2s1.8,0.2,2.5,0.3c0.7,0.1,1.2,0.2,1.5,0.3L43.1,86h-0.5
					c0-1.6-0.6-2.8-1.7-3.8c-1.2-0.9-2.7-1.4-4.6-1.4c-1.7,0-3.1,0.4-4.2,1.3s-1.6,1.9-1.7,3.1c0,0.9,0.3,1.7,0.9,2.3
					c0.6,0.7,1.4,1.3,2.3,1.8l8.6,5.6c1.4,0.8,2.4,1.8,3.1,3.1c0.7,1.3,1,2.7,0.9,4.4c-0.2,2.9-1.3,5.2-3.4,6.9
					c-2.1,1.6-4.9,2.5-8.5,2.5c-1.3,0-2.6-0.1-3.8-0.3c-1.2-0.2-2.3-0.5-3.3-0.9s-1.7-0.9-2.3-1.5c-0.2-0.7-0.3-1.5-0.3-2.4
					s0.2-1.9,0.4-2.8c0.3-1,0.6-1.8,1-2.4h0.4c-0.1,1.5,0.2,2.9,0.8,4.3c0.7,1.3,1.7,2.3,3,3.1c1.3,0.8,2.9,1.1,4.7,1.1
					c2,0,3.5-0.5,4.6-1.5s1.6-2.2,1.6-3.5c0-0.9-0.3-1.8-0.8-2.5c-0.6-0.7-1.5-1.5-2.7-2.2L29.5,95c-1.6-0.9-2.7-2.1-3.5-3.5
					c-0.7-1.4-1-2.9-0.9-4.6c0.1-1.6,0.6-2.9,1.4-4.1s1.9-2.1,3.2-2.8C31.2,79.4,32.8,79,34.7,79z M43.7,79.5l-0.1,0.9h-5.3v-0.9
					H43.7z"/>
				<path d="M76.8,99.9l0.5,6.8c-0.6,1-1.4,1.8-2.4,2.6c-1,0.8-2.3,1.4-3.7,1.8c-1.5,0.5-3.2,0.7-5.1,0.7c-3.4,0-6.3-0.6-8.7-1.7
					s-4.3-2.7-5.6-4.8c-1.3-2.1-2-4.6-2-7.6c0-2.9,0.6-5.5,1.9-7.5c1.3-2.1,3.2-3.7,5.6-4.8c2.4-1.1,5.3-1.7,8.7-1.7
					c2,0,3.9,0.2,5.7,0.6c1.8,0.4,3.2,0.9,4.4,1.5V93h-0.4c-0.8-2.8-1.9-4.7-3.6-5.8c-1.6-1.1-3.5-1.7-5.8-1.7c-2.2,0-4,0.5-5.5,1.5
					s-2.6,2.4-3.3,4.3c-0.7,1.8-1.1,4-1.1,6.4c0,2.5,0.4,4.7,1.1,6.5c0.7,1.8,1.8,3.3,3.2,4.3s3.1,1.6,5.1,1.6c2.1,0,3.9-0.3,5.3-1
					s2.5-1.7,3.3-3.2s1.4-3.4,1.8-5.9h0.6C76.8,100,76.8,99.9,76.8,99.9z"/>
				<path d="M83.8,87L83.8,87c-0.1-0.7-0.4-1.3-0.9-1.7c-0.5-0.5-1.1-0.7-1.8-0.7c0,0-0.2,0-0.6,0v-0.5h3.3V87z M83.8,108.3v2.8
					h-3.3v-0.5c0.4,0,0.6,0,0.6,0c0.7,0,1.3-0.2,1.8-0.7S83.7,108.9,83.8,108.3L83.8,108.3L83.8,108.3z M90.2,84.2v27h-6.5v-27H90.2
					z M90.1,87v-2.8h3.2v0.5c-0.3,0-0.5,0-0.5,0c-0.7,0-1.3,0.2-1.8,0.7C90.5,85.7,90.2,86.3,90.1,87L90.1,87z M90.1,108.3
					L90.1,108.3c0.1,0.7,0.4,1.2,0.9,1.7s1.1,0.7,1.8,0.7c0.3,0,0.5,0,0.5,0v0.5h-3.2C90.1,111.2,90.1,108.3,90.1,108.3z"/>
				<path d="M99.5,87L99.5,87c-0.1-0.7-0.4-1.3-0.8-1.7c-0.5-0.5-1-0.7-1.7-0.7c0,0-0.2,0-0.6,0v-0.5h3.3L99.5,87z M99.5,108.3
					l0.2,2.8h-3.3v-0.5c0.4,0,0.6,0,0.6,0c0.7,0,1.2-0.2,1.7-0.7C99.1,109.6,99.4,109,99.5,108.3L99.5,108.3z M105.9,84.2v27h-6.5
					v-27H105.9z M116.9,84.2V86h-11.1v-1.8H116.9z M114.9,96.9v1.8h-9.1v-1.8H114.9z M116.4,109.4l1,1.8h-11.7v-1.8H116.4z
					 M119.3,102.9l-1.7,8.3h-7.8l1.4-1.8c1.3,0,2.4-0.3,3.4-0.8s1.9-1.3,2.6-2.2c0.7-1,1.3-2.1,1.7-3.4L119.3,102.9L119.3,102.9z
					 M114.9,93v4H111v-0.1c1,0,1.9-0.4,2.5-1.1s0.9-1.5,0.9-2.5V93H114.9z M114.9,98.6v4h-0.4v-0.4c0-1-0.3-1.8-0.9-2.5
					s-1.4-1-2.5-1v-0.1H114.9z M116.9,83.5v1.1l-4.7-0.4c0.9,0,1.8-0.1,2.7-0.2S116.5,83.6,116.9,83.5z M116.9,85.9v4.8h-0.5v-0.4
					c0-1.3-0.4-2.4-1.1-3.1s-1.7-1.1-3-1.2v-0.1C112.3,85.9,116.9,85.9,116.9,85.9z"/>
				<path d="M124.5,108.4v2.7h-3.3v-0.5h0.7c0.7,0,1.3-0.2,1.8-0.7c0.5-0.4,0.7-1,0.7-1.6L124.5,108.4L124.5,108.4z M124.3,83.5
					l6.2,6.8v20.9h-6.2V88.7c0-1.5-0.2-3.2-0.5-5.1L124.3,83.5L124.3,83.5z M124.3,83.5l26.4,23.2l0.5,5l-26.4-23.2L124.3,83.5z
					 M130.5,108.4c0,0.7,0.3,1.2,0.8,1.6s1,0.7,1.7,0.7h0.8v0.5h-3.3V108.4L130.5,108.4z M145,86.9c0-0.7-0.3-1.2-0.7-1.6
					c-0.5-0.4-1-0.7-1.7-0.7h-0.8v-0.5h3.3L145,86.9L145,86.9z M151.1,84.2v22.3c0,1,0,2,0.1,2.8s0.2,1.6,0.3,2.5h-0.4l-6.2-7.2
					V84.2H151.1z M151,86.9v-2.7h3.4v0.5h-0.8c-0.7,0-1.2,0.2-1.7,0.7c-0.5,0.4-0.7,1-0.7,1.6L151,86.9L151,86.9z"/>
				<path d="M183.8,99.9l0.5,6.8c-0.6,1-1.4,1.8-2.4,2.6c-1,0.8-2.3,1.4-3.7,1.8s-3.2,0.7-5.1,0.7c-3.4,0-6.3-0.6-8.7-1.7
					s-4.3-2.7-5.6-4.8c-1.3-2.1-2-4.6-2-7.6c0-2.9,0.6-5.5,1.9-7.5c1.3-2.1,3.2-3.7,5.6-4.8s5.3-1.7,8.7-1.7c2,0,3.9,0.2,5.7,0.6
					s3.2,0.9,4.4,1.5V93h-0.4c-0.8-2.8-1.9-4.7-3.6-5.8c-1.6-1.1-3.5-1.7-5.8-1.7c-2.2,0-4,0.5-5.5,1.5s-2.5,2.4-3.3,4.3
					c-0.7,1.8-1.1,4-1.1,6.4c0,2.5,0.4,4.7,1.1,6.5c0.7,1.8,1.8,3.3,3.2,4.3s3.1,1.6,5.1,1.6c2.1,0,3.9-0.3,5.3-1
					c1.4-0.7,2.5-1.7,3.3-3.2s1.4-3.4,1.8-5.9h0.6V99.9z"/>
				<path d="M190.6,87L190.6,87c-0.1-0.7-0.4-1.3-0.8-1.7c-0.5-0.5-1-0.7-1.7-0.7c0,0-0.2,0-0.6,0v-0.5h3.3L190.6,87z M190.6,108.3
					l0.2,2.8h-3.3v-0.5c0.4,0,0.6,0,0.6,0c0.7,0,1.2-0.2,1.7-0.7C190.3,109.6,190.5,109,190.6,108.3L190.6,108.3z M197,84.2v27h-6.5
					v-27H197z M208.1,84.2V86H197v-1.8H208.1z M206,96.9v1.8h-9.1v-1.8H206z M207.6,109.4l1,1.8h-11.7v-1.8H207.6z M210.4,102.9
					l-1.7,8.3h-7.8l1.4-1.8c1.3,0,2.4-0.3,3.4-0.8s1.9-1.3,2.6-2.2c0.7-1,1.3-2.1,1.7-3.4L210.4,102.9L210.4,102.9z M206,93v4h-3.9
					v-0.1c1,0,1.9-0.4,2.5-1.1s0.9-1.5,0.9-2.5V93H206z M206,98.6v4h-0.5v-0.4c0-1-0.3-1.8-0.9-2.5s-1.4-1-2.5-1v-0.1H206z
					 M208.1,83.5v1.1l-4.7-0.4c0.9,0,1.8-0.1,2.7-0.2C207,83.8,207.7,83.6,208.1,83.5z M208.1,85.9v4.8h-0.4v-0.4
					c0-1.3-0.4-2.4-1.1-3.1c-0.7-0.7-1.7-1.1-3-1.2v-0.1C203.6,85.9,208.1,85.9,208.1,85.9z"/>
			</g>
		</g>
		<g>
			<g class="st0">
				<path d="M26.8,168.9v3.3h-5v-0.5c0,0,0.3,0,0.7,0c0.8,0,1.5-0.2,2.2-0.7s1-1.2,1.1-2.1H26.8z M29.6,140H30l1.6,4.5l-3,27.6h-3.1
					L29.6,140z M28.8,169.6C28.8,169.6,28.8,169.7,28.8,169.6c0,0.1,0,0.2,0,0.2c0,0.5,0.2,0.9,0.5,1.3c0.3,0.4,0.8,0.6,1.2,0.6h0.7
					v0.4h-2.7v-2.6h0.3V169.6z M30,140l14.7,24.2l-2.6,8.9l-13.3-22.4L30,140z M57.4,140l0.4,4.9l-13.4,23.2c-0.6,1-1,2-1.3,2.7
					c-0.3,0.8-0.4,1.5-0.4,2.2h-0.4l-1.8-3.9L57.4,140z M54.5,169.6h0.3v2.6h-2.7v-0.4h0.7c0.5,0,0.9-0.2,1.3-0.6
					c0.3-0.4,0.5-0.8,0.5-1.3C54.5,169.8,54.5,169.7,54.5,169.6C54.5,169.7,54.5,169.6,54.5,169.6z M57.8,140l4.3,32.1h-7.2
					l-2.2-20.7l4.8-11.4L57.8,140L57.8,140z M60.6,168.9h0.9c0.1,0.9,0.5,1.6,1.2,2.1s1.3,0.7,2.1,0.7h0.7v0.5h-5L60.6,168.9
					L60.6,168.9z"/>
				<path d="M69.1,145.2v2.3H69c0-0.6-0.2-1-0.6-1.4s-0.9-0.5-1.4-0.5h-0.6v-0.4L69.1,145.2L69.1,145.2z M75.5,145.2v17
					c0,2.8,0.6,4.9,1.9,6.5s3.1,2.3,5.3,2.3c2.4,0,4.2-0.7,5.5-2.2s2-3.5,2-6.1v-17.5h3v17.2c0,3.2-1,5.7-2.9,7.6
					c-2,1.9-4.7,2.8-8.3,2.8c-4.4,0-7.6-0.9-9.7-2.8c-2.1-1.8-3.2-4.4-3.2-7.6v-17.2H75.5z M78.2,145.2v0.4h-0.7
					c-0.5,0-1,0.2-1.4,0.5c-0.4,0.4-0.6,0.8-0.6,1.4h-0.1v-2.3L78.2,145.2L78.2,145.2z M90.4,145.2v2.3h-0.1c0-0.6-0.2-1-0.6-1.4
					s-0.9-0.5-1.4-0.5h-0.6v-0.4L90.4,145.2L90.4,145.2z M95.9,145.2v0.4h-0.6c-0.6,0-1.1,0.2-1.5,0.5c-0.4,0.4-0.6,0.8-0.6,1.4
					h-0.1v-2.3L95.9,145.2L95.9,145.2z"/>
				<path d="M107.6,144.6c0.6,0,1.3,0,2.2,0.1c0.9,0.1,1.7,0.1,2.5,0.2c0.8,0.1,1.6,0.2,2.2,0.3s1.1,0.2,1.3,0.3l-0.6,5.5h-0.4
					c0-1.4-0.5-2.5-1.4-3.3c-1-0.8-2.3-1.2-4.1-1.2c-1.4,0-2.6,0.3-3.5,0.9s-1.4,1.5-1.4,2.5c-0.1,0.5,0,1,0.3,1.5
					c0.3,0.4,0.6,0.8,1.1,1.1s1,0.7,1.6,1l7.1,4.4c1.2,0.6,2.1,1.5,2.8,2.6c0.7,1.1,1,2.5,0.9,4.1c-0.1,1.7-0.6,3.1-1.5,4.4
					c-0.9,1.2-2.1,2.2-3.6,2.8s-3.4,1-5.5,1c-1.3,0-2.5-0.1-3.6-0.3s-2.1-0.5-2.9-0.9s-1.4-0.8-1.8-1.2c-0.2-0.6-0.3-1.3-0.3-2.2
					s0.2-1.7,0.4-2.6c0.2-0.9,0.5-1.6,0.9-2.1h0.4c-0.1,1.3,0.2,2.6,0.7,3.7c0.6,1.1,1.4,2,2.6,2.7c1.1,0.7,2.5,1,4.1,1
					c1.7,0,3-0.4,3.9-1.2s1.3-1.8,1.3-2.8c0-0.8-0.3-1.5-0.8-2.2c-0.5-0.6-1.4-1.3-2.6-1.9l-6.4-4c-1.5-0.8-2.6-1.8-3.3-3.1
					s-0.9-2.7-0.7-4.2c0.1-1.4,0.6-2.7,1.3-3.7s1.6-1.8,2.8-2.3S106.1,144.6,107.6,144.6z M115.9,145v0.8H111V145H115.9z"/>
				<path d="M124.7,148L124.7,148c-0.1-0.7-0.4-1.3-0.8-1.7c-0.5-0.5-1-0.7-1.7-0.7c0,0-0.2,0-0.6,0v-0.5h3.3L124.7,148z
					 M124.7,169.3l0.2,2.8h-3.3v-0.5c0.4,0,0.6,0,0.6,0c0.7,0,1.2-0.2,1.7-0.7C124.3,170.6,124.6,170,124.7,169.3L124.7,169.3z
					 M131.1,145.2v27h-6.5v-27H131.1z M142.1,145.2v1.8H131v-1.8H142.1z M140.1,157.9v1.8H131v-1.8H140.1z M141.6,170.4l1,1.8H131
					v-1.8H141.6z M144.5,163.9l-1.7,8.3H135l1.4-1.8c1.3,0,2.4-0.3,3.4-0.8s1.9-1.3,2.6-2.2c0.7-1,1.3-2.1,1.7-3.4h0.4L144.5,163.9
					L144.5,163.9z M140.1,154v4h-3.9v-0.1c1,0,1.9-0.4,2.5-1.1s0.9-1.5,0.9-2.5V154H140.1z M140.1,159.6v4h-0.5v-0.4
					c0-1-0.3-1.8-0.9-2.5s-1.4-1-2.5-1v-0.1H140.1z M142.1,144.5v1.1l-4.7-0.4c0.9,0,1.8-0.1,2.7-0.2
					C141.1,144.8,141.7,144.6,142.1,144.5z M142.1,146.9v4.8h-0.4v-0.4c0-1.3-0.4-2.4-1.1-3.1c-0.7-0.7-1.7-1.1-3-1.2v-0.1H142.1z"
					/>
				<path d="M149.4,145.2v2.3h-0.1c0-0.6-0.2-1-0.6-1.4c-0.4-0.4-0.9-0.5-1.4-0.5h-0.6v-0.4L149.4,145.2L149.4,145.2z M155.8,145.2
					v17c0,2.8,0.6,4.9,1.9,6.5c1.3,1.6,3.1,2.3,5.3,2.3c2.4,0,4.2-0.7,5.5-2.2s2-3.5,2-6.1v-17.5h3v17.2c0,3.2-1,5.7-2.9,7.6
					c-2,1.9-4.7,2.8-8.3,2.8c-4.3,0-7.6-0.9-9.7-2.8c-2.1-1.8-3.2-4.4-3.2-7.6v-17.2H155.8z M158.5,145.2v0.4h-0.7
					c-0.5,0-1,0.2-1.4,0.5c-0.4,0.4-0.6,0.8-0.6,1.4h-0.1v-2.3L158.5,145.2L158.5,145.2z M170.7,145.2v2.3h-0.1c0-0.6-0.2-1-0.6-1.4
					c-0.4-0.4-0.9-0.5-1.4-0.5H168v-0.4L170.7,145.2L170.7,145.2z M176.2,145.2v0.4h-0.6c-0.6,0-1.1,0.2-1.5,0.5
					c-0.4,0.4-0.6,0.8-0.6,1.4h-0.1v-2.3L176.2,145.2L176.2,145.2z"/>
				<path d="M181.2,169.3v2.9h-4.4v-0.5h0.6c0.7,0,1.4-0.2,2-0.6c0.6-0.4,0.9-1,1-1.8L181.2,169.3L181.2,169.3z M183.8,144.6h0.4
					l1.5,4.3l-2.8,23.3H180L183.8,144.6z M183.1,169.9c0,0.3,0.1,0.7,0.3,1.1c0.2,0.4,0.7,0.7,1.3,0.7h0.6v0.5h-2.7l0.3-2.2h0.2
					L183.1,169.9L183.1,169.9z M184.2,144.6l13.3,19.9l-2.4,8.5l-12-18.1L184.2,144.6z M208.9,144.6l0.4,4.6l-12.1,19.2
					c-0.5,1-0.9,1.8-1.2,2.5s-0.4,1.4-0.4,2.1h-0.4l-1.8-3.7L208.9,144.6z M206,169.9h0.3l0.3,2.2h-2.7v-0.5h0.6
					c0.7,0,1.1-0.2,1.3-0.7C206,170.6,206.1,170.2,206,169.9z M209.3,144.6l4,27.6h-6.9l-2.2-16.4l4.7-11.2L209.3,144.6L209.3,144.6
					z M212,169.3h0.9c0.1,0.8,0.5,1.4,1.1,1.8c0.6,0.4,1.2,0.6,1.9,0.6h0.6v0.5H212V169.3z"/>
			</g>
		</g>
	</g>
	<g id="icon-1719742white" transform="translate(-53 -36.876)">
		<rect id="Retângulo_1" x="148.3" y="154.2" width="4" height="8"/>
		<rect id="Retângulo_2" x="148.3" y="106.2" width="4" height="8"/>
		<rect id="Retângulo_3" x="122.3" y="132.2" width="8" height="4"/>
		<rect id="Retângulo_4" x="170.3" y="132.2" width="8" height="4"/>
		
			<rect id="Retângulo_5" x="165.3" y="147.1" transform="matrix(0.7071 -0.7071 0.7071 0.7071 -57.8224 162.5469)" width="4" height="8"/>
		
			<rect id="Retângulo_6" x="131.2" y="113.2" transform="matrix(0.7071 -0.7071 0.7071 0.7071 -43.8774 128.5095)" width="4" height="8"/>
		
			<rect id="Retângulo_7" x="129.3" y="149.2" transform="matrix(0.7071 -0.7071 0.7071 0.7071 -67.8688 138.5529)" width="8" height="4"/>
		
			<rect id="Retângulo_8" x="163.2" y="115.2" transform="matrix(0.7071 -0.7071 0.7071 0.7071 -33.9192 152.5695)" width="8" height="4"/>
		<path id="Caminho_2" d="M175.8,202.2c-7.2,0-15.4-2.8-24-8.2c-13.4-8.5-26.2-22.7-36.1-39.8S100,118.9,99.3,103
			c-0.8-16.3,4-28.3,13.5-33.8s22.2-3.6,36,5.1c13.4,8.5,26.2,22.7,36.1,39.8s15.7,35.3,16.4,51.2c0.7,16.3-4.1,28.3-13.6,33.8
			C184,201.2,179.9,202.2,175.8,202.2z M124.8,70.2c-3.5-0.1-7,0.8-10.1,2.6c-8.1,4.7-12.2,15.4-11.6,30.1
			c0.7,15.2,6.3,32.7,15.9,49.4c9.6,16.6,21.9,30.3,34.8,38.5c12.4,7.9,23.8,9.7,31.9,5.1c8.1-4.7,12.2-15.4,11.6-30.1
			c-0.7-15.2-6.3-32.7-15.9-49.4c-9.6-16.6-21.9-30.3-34.8-38.5C138.8,72.7,131.3,70.2,124.8,70.2z"/>
		<path id="Caminho_3" d="M124.8,202.2c-4.2,0.1-8.4-1-12-3.1c-9.5-5.5-14.3-17.4-13.6-33.8c0.7-15.8,6.5-34,16.4-51.2
			s22.7-31.3,36.1-39.8c13.8-8.8,26.6-10.6,36-5.1c9.5,5.5,14.3,17.4,13.6,33.8c-0.7,15.8-6.5,34-16.4,51.2s-22.7,31.3-36.1,39.8
			C140.3,199.5,132.1,202.2,124.8,202.2z M175.8,70.2c-6.5,0-13.9,2.6-21.8,7.6c-12.8,8.2-25.2,21.8-34.8,38.5
			c-9.6,16.6-15.2,34.1-15.9,49.4c-0.7,14.7,3.5,25.4,11.6,30.1s19.4,2.9,31.9-5.1c12.8-8.2,25.2-21.8,34.8-38.5
			c9.6-16.6,15.2-34.1,15.9-49.4c0.6-14.7-3.5-25.4-11.6-30.1C182.8,71,179.3,70.1,175.8,70.2z"/>
		<path id="Caminho_4" d="M150.3,174.2c-19.8,0-38.5-4-52.5-11.3c-14.5-7.6-22.5-17.8-22.5-28.7s8-21.1,22.5-28.6
			c14-7.3,32.7-11.4,52.5-11.4s38.5,4,52.5,11.3c14.5,7.6,22.5,17.8,22.5,28.7s-8,21.1-22.5,28.6
			C188.8,170.1,170.1,174.2,150.3,174.2z M150.3,98.2c-39.1,0-71,16.1-71,36s31.9,36,71,36s71-16.1,71-36S189.4,98.2,150.3,98.2z"/>
		<circle id="Elipse_1" class="st1" cx="150.3" cy="134.2" r="15"/>
		<path id="Caminho_5" d="M150.3,151.2c-9.4,0-17-7.6-17-17s7.6-17,17-17s17,7.6,17,17C167.3,143.5,159.7,151.2,150.3,151.2
			L150.3,151.2z M150.3,121.2c-7.2,0-13,5.8-13,13s5.8,13,13,13s13-5.8,13-13S157.5,121.2,150.3,121.2L150.3,121.2z"/>
	</g>
</g>
</svg>
