<?xml version="1.0" encoding="utf-8"?>
<!-- Generator: Adobe Illustrator 26.1.0, SVG Export Plug-In . SVG Version: 6.00 Build 0)  -->
<svg version="1.1" id="Camada_1" xmlns="http://www.w3.org/2000/svg" xmlns:xlink="http://www.w3.org/1999/xlink" x="0px" y="0px"
	 viewBox="0 0 446 186" style="enable-background:new 0 0 446 186;" xml:space="preserve">
<style type="text/css">
	.st0{enable-background:new    ;}
	.st1{fill:#EFF2EB;}
	.st2{fill:#FFFFFF;stroke:#000000;stroke-width:0.25;stroke-miterlimit:10;}
	.st3{fill:#FFFFFF;stroke:#000000;stroke-width:0.25;stroke-miterlimit:9.9999;}
	.st4{fill:#FF8C1A;stroke:#000000;stroke-width:0.25;stroke-miterlimit:10;}
</style>
<g id="logo_grande" transform="translate(0.125)">
	<g id="Componente_1_1" transform="translate(150)">
		<g>
			<g class="st0">
				<path class="st1" d="M36.7,37l0.4,7.7c-0.7,1.1-1.5,2.1-2.7,3c-1.1,0.9-2.5,1.6-4.1,2.2c-1.7,0.6-3.6,0.8-5.9,0.8
					c-3.7,0-6.9-0.7-9.6-2c-2.7-1.3-4.9-3.2-6.4-5.6c-1.5-2.4-2.2-5.4-2.2-8.8s0.7-6.3,2.2-8.7s3.6-4.3,6.3-5.6c2.7-1.3,6-2,9.8-2
					c2.4,0,4.6,0.2,6.5,0.7s3.5,1.1,4.8,1.8v7.7h-0.4c-0.8-3-2.1-5.1-4-6.4c-1.8-1.3-4-1.9-6.4-1.9s-4.5,0.6-6.2,1.8s-3,2.8-4,5
					c-0.9,2.1-1.4,4.7-1.4,7.7s0.4,5.5,1.3,7.7s2.1,3.8,3.8,5c1.6,1.2,3.6,1.8,5.8,1.9c2.3,0,4.3-0.4,5.9-1.1c1.6-0.8,2.9-2,3.8-3.7
					c1-1.7,1.7-4.1,2.2-7h0.5V37z"/>
				<path class="st1" d="M56.8,22.6c2.4,0,4.6,0.3,6.5,1c1.9,0.6,3.6,1.6,5,2.8c1.4,1.2,2.5,2.7,3.3,4.5c0.8,1.8,1.1,3.7,1.1,5.9
					s-0.4,4.1-1.1,5.8c-0.8,1.7-1.9,3.2-3.3,4.4s-3.1,2.2-5,2.8c-2,0.6-4.1,1-6.5,1s-4.5-0.3-6.5-1c-2-0.6-3.6-1.6-5-2.8
					s-2.5-2.7-3.2-4.4c-0.8-1.7-1.1-3.7-1.1-5.8c0-2.2,0.4-4.2,1.1-5.9c0.7-1.7,1.8-3.2,3.2-4.5c1.4-1.2,3.1-2.2,5-2.8
					C52.3,22.9,54.4,22.6,56.8,22.6z M56.8,49c1.8,0,3.4-0.5,4.8-1.5s2.4-2.4,3.1-4.3c0.7-1.8,1.1-4,1.1-6.5s-0.4-4.7-1.1-6.6
					c-0.7-1.8-1.8-3.3-3.1-4.3c-1.4-1-3-1.5-4.8-1.5s-3.4,0.5-4.7,1.5s-2.4,2.4-3.1,4.3c-0.8,1.8-1.1,4-1.1,6.6
					c0,2.5,0.4,4.7,1.1,6.5s1.8,3.2,3.1,4.3C53.4,48.5,55,49,56.8,49z"/>
				<path class="st1" d="M78.4,47.3v2.9H74v-0.5h0.6c0.7,0,1.4-0.2,2-0.6c0.6-0.4,0.9-1,1-1.8C77.6,47.3,78.4,47.3,78.4,47.3z
					 M81,22.6h0.4l1.5,4.3l-2.8,23.3h-2.9L81,22.6z M80.3,47.9c0,0.3,0.1,0.7,0.3,1.1c0.2,0.4,0.7,0.7,1.3,0.7h0.6v0.5h-2.7l0.3-2.2
					L80.3,47.9L80.3,47.9z M81.4,22.6l13.3,19.9L92.3,51l-12-18.1L81.4,22.6z M106,22.6l0.4,4.6L94.3,46.4c-0.5,1-0.9,1.8-1.2,2.5
					c-0.3,0.7-0.4,1.4-0.4,2.1h-0.4l-1.8-3.7L106,22.6z M103.2,47.9h0.3l0.3,2.2H101v-0.5h0.6c0.7,0,1.1-0.2,1.3-0.7
					C103.2,48.6,103.3,48.2,103.2,47.9z M106.5,22.6l4,27.6h-6.9l-2.2-16.4l4.7-11.2C106.1,22.6,106.5,22.6,106.5,22.6z M109.2,47.3
					h0.9c0.2,0.8,0.5,1.4,1.1,1.8c0.6,0.4,1.2,0.6,1.9,0.6h0.6v0.5h-4.4L109.2,47.3L109.2,47.3z"/>
				<path class="st1" d="M117.2,47.3v2.9h-4.4v-0.5h0.6c0.8,0,1.4-0.2,2-0.6c0.6-0.4,0.9-1,1-1.8C116.4,47.3,117.2,47.3,117.2,47.3z
					 M119.9,22.6h0.4l1.5,4.3L119,50.2h-3L119.9,22.6z M119.1,47.9c0,0.3,0.1,0.7,0.3,1.1c0.2,0.4,0.7,0.7,1.3,0.7h0.6v0.5h-2.7
					l0.3-2.2L119.1,47.9L119.1,47.9z M120.2,22.6l13.3,19.9l-2.4,8.5l-12-18.1L120.2,22.6z M144.9,22.6l0.4,4.6l-12.1,19.2
					c-0.5,1-0.9,1.8-1.2,2.5s-0.4,1.4-0.4,2.1h-0.4l-1.8-3.7L144.9,22.6z M142,47.9h0.3l0.3,2.2h-2.7v-0.5h0.6
					c0.7,0,1.1-0.2,1.3-0.7C142,48.6,142.1,48.2,142,47.9z M145.3,22.6l4,27.6h-6.9l-2.2-16.4l4.7-11.2
					C144.9,22.6,145.3,22.6,145.3,22.6z M148,47.3h0.9c0.2,0.8,0.5,1.4,1.1,1.8c0.6,0.4,1.2,0.6,1.9,0.6h0.6v0.5H148V47.3z"/>
				<path class="st1" d="M156,23.2v2.3h-0.1c0-0.6-0.2-1-0.6-1.4c-0.4-0.4-0.9-0.5-1.4-0.5h-0.6v-0.4H156z M162.4,23.2v17
					c0,2.8,0.6,4.9,1.9,6.5c1.3,1.6,3.1,2.3,5.3,2.3c2.4,0,4.2-0.7,5.5-2.2s2-3.5,2-6.1V23.2h3v17.2c0,3.2-1,5.7-2.9,7.6
					c-2,1.9-4.7,2.8-8.3,2.8c-4.3,0-7.6-0.9-9.7-2.8c-2.1-1.8-3.2-4.4-3.2-7.6V23.2H162.4z M165,23.2v0.4h-0.7c-0.5,0-1,0.2-1.4,0.5
					c-0.4,0.4-0.6,0.8-0.6,1.4h-0.1v-2.3H165z M177.2,23.2v2.3h-0.1c0-0.6-0.2-1-0.6-1.4c-0.4-0.4-0.9-0.5-1.4-0.5h-0.6v-0.4H177.2z
					 M182.8,23.2v0.4h-0.6c-0.6,0-1.1,0.2-1.5,0.5c-0.4,0.4-0.6,0.8-0.6,1.4H180v-2.3H182.8z"/>
				<path class="st1" d="M188,47.4v2.7h-3.3v-0.5h0.7c0.7,0,1.3-0.2,1.8-0.7c0.5-0.4,0.7-1,0.7-1.6L188,47.4L188,47.4z M187.8,22.5
					l6.2,6.8v20.9h-6.2V27.7c0-1.5-0.2-3.2-0.5-5.1h0.5V22.5z M187.8,22.5l26.4,23.2l0.5,5l-26.4-23.2L187.8,22.5z M194,47.4
					c0,0.7,0.3,1.2,0.8,1.6c0.5,0.4,1,0.7,1.7,0.7h0.8v0.5H194V47.4L194,47.4z M208.5,25.9c0-0.7-0.3-1.2-0.7-1.6
					c-0.5-0.4-1-0.7-1.7-0.7h-0.8v-0.5h3.3L208.5,25.9L208.5,25.9z M214.6,23.2v22.3c0,1,0,2,0.1,2.8s0.2,1.6,0.3,2.5h-0.4l-6.2-7.2
					V23.2H214.6z M214.5,25.9v-2.7h3.4v0.5h-0.8c-0.7,0-1.2,0.2-1.7,0.7c-0.5,0.4-0.7,1-0.7,1.6h-0.2V25.9z"/>
				<path class="st1" d="M223.6,26h-0.1c0-0.7-0.3-1.3-0.8-1.7c-0.5-0.5-1.1-0.7-1.8-0.7c0,0-0.2,0-0.6,0v-0.5h3.3L223.6,26
					L223.6,26z M223.6,47.3v2.8h-3.3v-0.5c0.4,0,0.6,0,0.6,0c0.7,0,1.3-0.2,1.8-0.7s0.8-1,0.8-1.7h0.1V47.3z M229.9,23.2v27h-6.5
					v-27H229.9z M229.8,26v-2.8h3.2v0.5c-0.3,0-0.5,0-0.5,0c-0.7,0-1.3,0.2-1.8,0.7S230,25.3,229.8,26L229.8,26z M229.8,47.3
					L229.8,47.3c0.1,0.7,0.4,1.2,0.9,1.7s1.1,0.7,1.8,0.7c0.3,0,0.5,0,0.5,0v0.5h-3.2V47.3z"/>
				<path class="st1" d="M235.1,22.4c0.3,0.1,0.7,0.2,1.2,0.3c0.5,0.1,1.1,0.2,1.8,0.3c0.6,0.1,1.2,0.1,1.8,0.1l-4.7,0.5L235.1,22.4
					L235.1,22.4z M261.2,23.1v1.8h-26.1v-1.8H261.2z M239.6,24.8v0.1c-1.3,0-2.3,0.4-3,1.2c-0.7,0.8-1.1,1.8-1.1,3.1v0.4H235v-4.8
					H239.6z M244.9,47.3v2.8h-3v-0.5h0.5c0.7,0,1.3-0.2,1.7-0.7C244.5,48.6,244.8,48,244.9,47.3L244.9,47.3z M251.3,23.3v26.9h-6.5
					V23.3H251.3z M251.2,47.3h0.1c0,0.7,0.2,1.2,0.7,1.7s1.1,0.7,1.7,0.7h0.5v0.5h-3.1L251.2,47.3L251.2,47.3z M261.2,22.4v1.1
					l-4.8-0.5c0.6,0,1.2,0,1.8-0.1c0.7-0.1,1.3-0.2,1.8-0.3C260.6,22.6,260.9,22.5,261.2,22.4z M261.2,24.8v4.8h-0.5v-0.4
					c0-1.3-0.3-2.3-1.1-3.1c-0.7-0.7-1.7-1.1-3-1.2v-0.1C256.6,24.8,261.2,24.8,261.2,24.8z"/>
				<path class="st1" d="M272,26l-7.3-0.1c-0.4-0.6-1-1.2-1.7-1.6s-1.5-0.6-2.3-0.6h-0.5v-0.5h13.7v0.5h-0.5c-0.6,0-1.1,0.3-1.4,0.8
					C271.7,24.9,271.7,25.4,272,26z M270.4,23.2l8.5,14.6l-6,0.7L263,23.2H270.4z M272.8,47.3v2.8h-3.2v-0.5c0,0,0.2,0,0.5,0
					c0.7,0,1.3-0.2,1.8-0.7s0.7-1,0.8-1.7h0.1V47.3z M279.1,37.9v12.2h-6.5V38L279.1,37.9z M285.5,23.2h3.3l-10.2,15.6l-2.1-0.4
					L285.5,23.2z M279,47.3L279,47.3c0.1,0.7,0.4,1.2,0.9,1.7s1.1,0.7,1.7,0.7h0.5v0.5H279V47.3z M283.9,26c0.3-0.6,0.3-1.1,0-1.6
					s-0.8-0.7-1.4-0.7H282v-0.5h9.7v0.5h-0.6c-0.8,0-1.6,0.2-2.3,0.7c-0.7,0.4-1.3,1-1.7,1.6H283.9z"/>
			</g>
		</g>
		<g>
			<g class="st0">
				<path class="st1" d="M16.7,79c0.6,0,1.3,0,2.2,0.1s1.8,0.1,2.7,0.2s1.8,0.2,2.5,0.3c0.7,0.1,1.2,0.2,1.5,0.3L25.1,86h-0.5
					c0-1.6-0.6-2.8-1.7-3.8c-1.2-0.9-2.7-1.4-4.6-1.4c-1.7,0-3.1,0.4-4.2,1.3s-1.6,1.9-1.7,3.1c0,0.9,0.3,1.7,0.9,2.3
					c0.6,0.7,1.4,1.3,2.3,1.8l8.6,5.6c1.4,0.8,2.4,1.8,3.1,3.1c0.7,1.3,1,2.7,0.9,4.4c-0.2,2.9-1.3,5.2-3.4,6.9
					c-2.1,1.6-4.9,2.5-8.5,2.5c-1.3,0-2.6-0.1-3.8-0.3c-1.2-0.2-2.3-0.5-3.3-0.9s-1.7-0.9-2.3-1.5c-0.2-0.7-0.3-1.5-0.3-2.4
					s0.2-1.9,0.4-2.8c0.3-1,0.6-1.8,1-2.4h0.4c-0.1,1.5,0.2,2.9,0.8,4.3c0.7,1.3,1.7,2.3,3,3.1c1.3,0.8,2.9,1.1,4.7,1.1
					c2,0,3.5-0.5,4.6-1.5s1.6-2.2,1.6-3.5c0-0.9-0.3-1.8-0.8-2.5c-0.6-0.7-1.5-1.5-2.7-2.2L11.5,95c-1.6-0.9-2.7-2.1-3.5-3.5
					c-0.7-1.4-1-2.9-0.9-4.6c0.1-1.6,0.6-2.9,1.4-4.1s1.9-2.1,3.2-2.8C13.2,79.4,14.8,79,16.7,79z M25.7,79.5l-0.1,0.9h-5.3v-0.9
					H25.7z"/>
				<path class="st1" d="M58.8,99.9l0.5,6.8c-0.6,1-1.4,1.8-2.4,2.6c-1,0.8-2.3,1.4-3.7,1.8c-1.5,0.5-3.2,0.7-5.1,0.7
					c-3.4,0-6.3-0.6-8.7-1.7s-4.3-2.7-5.6-4.8c-1.3-2.1-2-4.6-2-7.6c0-2.9,0.6-5.5,1.9-7.5c1.3-2.1,3.2-3.7,5.6-4.8
					c2.4-1.1,5.3-1.7,8.7-1.7c2,0,3.9,0.2,5.7,0.6c1.8,0.4,3.2,0.9,4.4,1.5V93h-0.4c-0.8-2.8-1.9-4.7-3.6-5.8
					c-1.6-1.1-3.5-1.7-5.8-1.7c-2.2,0-4,0.5-5.5,1.5s-2.6,2.4-3.3,4.3c-0.7,1.8-1.1,4-1.1,6.4c0,2.5,0.4,4.7,1.1,6.5
					c0.7,1.8,1.8,3.3,3.2,4.3s3.1,1.6,5.1,1.6c2.1,0,3.9-0.3,5.3-1s2.5-1.7,3.3-3.2s1.4-3.4,1.8-5.9h0.6V99.9z"/>
				<path class="st1" d="M65.8,87L65.8,87c-0.1-0.7-0.4-1.3-0.9-1.7c-0.5-0.5-1.1-0.7-1.8-0.7c0,0-0.2,0-0.6,0v-0.5h3.3V87z
					 M65.8,108.3v2.8h-3.3v-0.5c0.4,0,0.6,0,0.6,0c0.7,0,1.3-0.2,1.8-0.7S65.7,108.9,65.8,108.3L65.8,108.3L65.8,108.3z M72.2,84.2
					v27h-6.5v-27H72.2z M72.1,87v-2.8h3.2v0.5c-0.3,0-0.5,0-0.5,0c-0.7,0-1.3,0.2-1.8,0.7C72.5,85.7,72.2,86.3,72.1,87L72.1,87z
					 M72.1,108.3L72.1,108.3c0.1,0.7,0.4,1.2,0.9,1.7s1.1,0.7,1.8,0.7c0.3,0,0.5,0,0.5,0v0.5h-3.2C72.1,111.2,72.1,108.3,72.1,108.3
					z"/>
				<path class="st1" d="M81.5,87L81.5,87c-0.1-0.7-0.4-1.3-0.8-1.7c-0.5-0.5-1-0.7-1.7-0.7c0,0-0.2,0-0.6,0v-0.5h3.3L81.5,87z
					 M81.5,108.3l0.2,2.8h-3.3v-0.5c0.4,0,0.6,0,0.6,0c0.7,0,1.2-0.2,1.7-0.7C81.1,109.6,81.4,109,81.5,108.3L81.5,108.3z
					 M87.9,84.2v27h-6.5v-27H87.9z M98.9,84.2V86H87.8v-1.8H98.9z M96.9,96.9v1.8h-9.1v-1.8H96.9z M98.4,109.4l1,1.8H87.7v-1.8H98.4
					z M101.3,102.9l-1.7,8.3h-7.8l1.4-1.8c1.3,0,2.4-0.3,3.4-0.8s1.9-1.3,2.6-2.2c0.7-1,1.3-2.1,1.7-3.4L101.3,102.9L101.3,102.9z
					 M96.9,93v4H93v-0.1c1,0,1.9-0.4,2.5-1.1s0.9-1.5,0.9-2.5V93H96.9z M96.9,98.6v4h-0.4v-0.4c0-1-0.3-1.8-0.9-2.5s-1.4-1-2.5-1
					v-0.1H96.9z M98.9,83.5v1.1l-4.7-0.4c0.9,0,1.8-0.1,2.7-0.2S98.5,83.6,98.9,83.5z M98.9,85.9v4.8h-0.5v-0.4
					c0-1.3-0.4-2.4-1.1-3.1s-1.7-1.1-3-1.2v-0.1C94.3,85.9,98.9,85.9,98.9,85.9z"/>
				<path class="st1" d="M106.5,108.4v2.7h-3.3v-0.5h0.7c0.7,0,1.3-0.2,1.8-0.7c0.5-0.4,0.7-1,0.7-1.6L106.5,108.4L106.5,108.4z
					 M106.3,83.5l6.2,6.8v20.9h-6.2V88.7c0-1.5-0.2-3.2-0.5-5.1L106.3,83.5L106.3,83.5z M106.3,83.5l26.4,23.2l0.5,5l-26.4-23.2
					L106.3,83.5z M112.5,108.4c0,0.7,0.3,1.2,0.8,1.6s1,0.7,1.7,0.7h0.8v0.5h-3.3V108.4L112.5,108.4z M127,86.9
					c0-0.7-0.3-1.2-0.7-1.6c-0.5-0.4-1-0.7-1.7-0.7h-0.8v-0.5h3.3L127,86.9L127,86.9z M133.1,84.2v22.3c0,1,0,2,0.1,2.8
					s0.2,1.6,0.3,2.5h-0.4l-6.2-7.2V84.2H133.1z M133,86.9v-2.7h3.4v0.5h-0.8c-0.7,0-1.2,0.2-1.7,0.7c-0.5,0.4-0.7,1-0.7,1.6
					L133,86.9L133,86.9z"/>
				<path class="st1" d="M165.8,99.9l0.5,6.8c-0.6,1-1.4,1.8-2.4,2.6c-1,0.8-2.3,1.4-3.7,1.8s-3.2,0.7-5.1,0.7
					c-3.4,0-6.3-0.6-8.7-1.7s-4.3-2.7-5.6-4.8c-1.3-2.1-2-4.6-2-7.6c0-2.9,0.6-5.5,1.9-7.5c1.3-2.1,3.2-3.7,5.6-4.8s5.3-1.7,8.7-1.7
					c2,0,3.9,0.2,5.7,0.6s3.2,0.9,4.4,1.5V93h-0.4c-0.8-2.8-1.9-4.7-3.6-5.8c-1.6-1.1-3.5-1.7-5.8-1.7c-2.2,0-4,0.5-5.5,1.5
					s-2.5,2.4-3.3,4.3c-0.7,1.8-1.1,4-1.1,6.4c0,2.5,0.4,4.7,1.1,6.5c0.7,1.8,1.8,3.3,3.2,4.3s3.1,1.6,5.1,1.6c2.1,0,3.9-0.3,5.3-1
					c1.4-0.7,2.5-1.7,3.3-3.2s1.4-3.4,1.8-5.9h0.6V99.9z"/>
				<path class="st1" d="M172.6,87L172.6,87c-0.1-0.7-0.4-1.3-0.8-1.7c-0.5-0.5-1-0.7-1.7-0.7c0,0-0.2,0-0.6,0v-0.5h3.3L172.6,87z
					 M172.6,108.3l0.2,2.8h-3.3v-0.5c0.4,0,0.6,0,0.6,0c0.7,0,1.2-0.2,1.7-0.7C172.3,109.6,172.5,109,172.6,108.3L172.6,108.3z
					 M179,84.2v27h-6.5v-27H179z M190.1,84.2V86H179v-1.8H190.1z M188,96.9v1.8h-9.1v-1.8H188z M189.6,109.4l1,1.8h-11.7v-1.8H189.6
					z M192.4,102.9l-1.7,8.3h-7.8l1.4-1.8c1.3,0,2.4-0.3,3.4-0.8s1.9-1.3,2.6-2.2c0.7-1,1.3-2.1,1.7-3.4L192.4,102.9L192.4,102.9z
					 M188,93v4h-3.9v-0.1c1,0,1.9-0.4,2.5-1.1s0.9-1.5,0.9-2.5V93H188z M188,98.6v4h-0.5v-0.4c0-1-0.3-1.8-0.9-2.5s-1.4-1-2.5-1
					v-0.1H188z M190.1,83.5v1.1l-4.7-0.4c0.9,0,1.8-0.1,2.7-0.2C189,83.8,189.7,83.6,190.1,83.5z M190.1,85.9v4.8h-0.4v-0.4
					c0-1.3-0.4-2.4-1.1-3.1c-0.7-0.7-1.7-1.1-3-1.2v-0.1C185.6,85.9,190.1,85.9,190.1,85.9z"/>
			</g>
		</g>
		<g>
			<g class="st0">
				<path class="st1" d="M8.8,168.9v3.3h-5v-0.5c0,0,0.3,0,0.7,0c0.8,0,1.5-0.2,2.2-0.7s1-1.2,1.1-2.1H8.8z M11.6,140H12l1.6,4.5
					l-3,27.6H7.5L11.6,140z M10.8,169.6C10.8,169.6,10.8,169.7,10.8,169.6c0,0.1,0,0.2,0,0.2c0,0.5,0.2,0.9,0.5,1.3
					c0.3,0.4,0.8,0.6,1.2,0.6h0.7v0.4h-2.7v-2.6h0.3V169.6z M12,140l14.7,24.2l-2.6,8.9l-13.3-22.4L12,140z M39.4,140l0.4,4.9
					l-13.4,23.2c-0.6,1-1,2-1.3,2.7c-0.3,0.8-0.4,1.5-0.4,2.2h-0.4l-1.8-3.9L39.4,140z M36.5,169.6h0.3v2.6h-2.7v-0.4h0.7
					c0.5,0,0.9-0.2,1.3-0.6c0.3-0.4,0.5-0.8,0.5-1.3C36.5,169.8,36.5,169.7,36.5,169.6C36.5,169.7,36.5,169.6,36.5,169.6z M39.8,140
					l4.3,32.1h-7.2l-2.2-20.7l4.8-11.4L39.8,140L39.8,140z M42.6,168.9h0.9c0.1,0.9,0.5,1.6,1.2,2.1s1.3,0.7,2.1,0.7h0.7v0.5h-5
					L42.6,168.9L42.6,168.9z"/>
				<path class="st1" d="M51.1,145.2v2.3H51c0-0.6-0.2-1-0.6-1.4s-0.9-0.5-1.4-0.5h-0.6v-0.4L51.1,145.2L51.1,145.2z M57.5,145.2v17
					c0,2.8,0.6,4.9,1.9,6.5s3.1,2.3,5.3,2.3c2.4,0,4.2-0.7,5.5-2.2s2-3.5,2-6.1v-17.5h3v17.2c0,3.2-1,5.7-2.9,7.6
					c-2,1.9-4.7,2.8-8.3,2.8c-4.4,0-7.6-0.9-9.7-2.8c-2.1-1.8-3.2-4.4-3.2-7.6v-17.2H57.5z M60.2,145.2v0.4h-0.7
					c-0.5,0-1,0.2-1.4,0.5c-0.4,0.4-0.6,0.8-0.6,1.4h-0.1v-2.3L60.2,145.2L60.2,145.2z M72.4,145.2v2.3h-0.1c0-0.6-0.2-1-0.6-1.4
					s-0.9-0.5-1.4-0.5h-0.6v-0.4L72.4,145.2L72.4,145.2z M77.9,145.2v0.4h-0.6c-0.6,0-1.1,0.2-1.5,0.5c-0.4,0.4-0.6,0.8-0.6,1.4
					h-0.1v-2.3L77.9,145.2L77.9,145.2z"/>
				<path class="st1" d="M89.6,144.6c0.6,0,1.3,0,2.2,0.1c0.9,0.1,1.7,0.1,2.5,0.2c0.8,0.1,1.6,0.2,2.2,0.3s1.1,0.2,1.3,0.3
					l-0.6,5.5h-0.4c0-1.4-0.5-2.5-1.4-3.3c-1-0.8-2.3-1.2-4.1-1.2c-1.4,0-2.6,0.3-3.5,0.9s-1.4,1.5-1.4,2.5c-0.1,0.5,0,1,0.3,1.5
					c0.3,0.4,0.6,0.8,1.1,1.1s1,0.7,1.6,1l7.1,4.4c1.2,0.6,2.1,1.5,2.8,2.6c0.7,1.1,1,2.5,0.9,4.1c-0.1,1.7-0.6,3.1-1.5,4.4
					c-0.9,1.2-2.1,2.2-3.6,2.8s-3.4,1-5.5,1c-1.3,0-2.5-0.1-3.6-0.3s-2.1-0.5-2.9-0.9s-1.4-0.8-1.8-1.2c-0.2-0.6-0.3-1.3-0.3-2.2
					s0.2-1.7,0.4-2.6c0.2-0.9,0.5-1.6,0.9-2.1h0.4c-0.1,1.3,0.2,2.6,0.7,3.7c0.6,1.1,1.4,2,2.6,2.7c1.1,0.7,2.5,1,4.1,1
					c1.7,0,3-0.4,3.9-1.2s1.3-1.8,1.3-2.8c0-0.8-0.3-1.5-0.8-2.2c-0.5-0.6-1.4-1.3-2.6-1.9l-6.4-4c-1.5-0.8-2.6-1.8-3.3-3.1
					s-0.9-2.7-0.7-4.2c0.1-1.4,0.6-2.7,1.3-3.7s1.6-1.8,2.8-2.3S88.1,144.6,89.6,144.6z M97.9,145v0.8H93V145H97.9z"/>
				<path class="st1" d="M106.7,148L106.7,148c-0.1-0.7-0.4-1.3-0.8-1.7c-0.5-0.5-1-0.7-1.7-0.7c0,0-0.2,0-0.6,0v-0.5h3.3L106.7,148
					z M106.7,169.3l0.2,2.8h-3.3v-0.5c0.4,0,0.6,0,0.6,0c0.7,0,1.2-0.2,1.7-0.7C106.3,170.6,106.6,170,106.7,169.3L106.7,169.3z
					 M113.1,145.2v27h-6.5v-27H113.1z M124.1,145.2v1.8H113v-1.8H124.1z M122.1,157.9v1.8H113v-1.8H122.1z M123.6,170.4l1,1.8H113
					v-1.8H123.6z M126.5,163.9l-1.7,8.3H117l1.4-1.8c1.3,0,2.4-0.3,3.4-0.8s1.9-1.3,2.6-2.2c0.7-1,1.3-2.1,1.7-3.4h0.4V163.9z
					 M122.1,154v4h-3.9v-0.1c1,0,1.9-0.4,2.5-1.1s0.9-1.5,0.9-2.5V154H122.1z M122.1,159.6v4h-0.5v-0.4c0-1-0.3-1.8-0.9-2.5
					s-1.4-1-2.5-1v-0.1H122.1z M124.1,144.5v1.1l-4.7-0.4c0.9,0,1.8-0.1,2.7-0.2C123.1,144.8,123.7,144.6,124.1,144.5z M124.1,146.9
					v4.8h-0.4v-0.4c0-1.3-0.4-2.4-1.1-3.1c-0.7-0.7-1.7-1.1-3-1.2v-0.1H124.1z"/>
				<path class="st1" d="M131.4,145.2v2.3h-0.1c0-0.6-0.2-1-0.6-1.4c-0.4-0.4-0.9-0.5-1.4-0.5h-0.6v-0.4L131.4,145.2L131.4,145.2z
					 M137.8,145.2v17c0,2.8,0.6,4.9,1.9,6.5c1.3,1.6,3.1,2.3,5.3,2.3c2.4,0,4.2-0.7,5.5-2.2s2-3.5,2-6.1v-17.5h3v17.2
					c0,3.2-1,5.7-2.9,7.6c-2,1.9-4.7,2.8-8.3,2.8c-4.3,0-7.6-0.9-9.7-2.8c-2.1-1.8-3.2-4.4-3.2-7.6v-17.2H137.8z M140.5,145.2v0.4
					h-0.7c-0.5,0-1,0.2-1.4,0.5c-0.4,0.4-0.6,0.8-0.6,1.4h-0.1v-2.3L140.5,145.2L140.5,145.2z M152.7,145.2v2.3h-0.1
					c0-0.6-0.2-1-0.6-1.4c-0.4-0.4-0.9-0.5-1.4-0.5H150v-0.4L152.7,145.2L152.7,145.2z M158.2,145.2v0.4h-0.6
					c-0.6,0-1.1,0.2-1.5,0.5c-0.4,0.4-0.6,0.8-0.6,1.4h-0.1v-2.3L158.2,145.2L158.2,145.2z"/>
				<path class="st1" d="M163.2,169.3v2.9h-4.4v-0.5h0.6c0.7,0,1.4-0.2,2-0.6c0.6-0.4,0.9-1,1-1.8L163.2,169.3L163.2,169.3z
					 M165.8,144.6h0.4l1.5,4.3l-2.8,23.3H162L165.8,144.6z M165.1,169.9c0,0.3,0.1,0.7,0.3,1.1c0.2,0.4,0.7,0.7,1.3,0.7h0.6v0.5
					h-2.7l0.3-2.2h0.2V169.9z M166.2,144.6l13.3,19.9l-2.4,8.5l-12-18.1L166.2,144.6z M190.9,144.6l0.4,4.6l-12.1,19.2
					c-0.5,1-0.9,1.8-1.2,2.5s-0.4,1.4-0.4,2.1h-0.4l-1.8-3.7L190.9,144.6z M188,169.9h0.3l0.3,2.2h-2.7v-0.5h0.6
					c0.7,0,1.1-0.2,1.3-0.7C188,170.6,188.1,170.2,188,169.9z M191.3,144.6l4,27.6h-6.9l-2.2-16.4l4.7-11.2L191.3,144.6L191.3,144.6
					z M194,169.3h0.9c0.1,0.8,0.5,1.4,1.1,1.8c0.6,0.4,1.2,0.6,1.9,0.6h0.6v0.5H194V169.3z"/>
			</g>
		</g>
	</g>
	<g id="icon-1719742white" transform="translate(-53 -36.876)">
		<rect id="Retângulo_1" x="130.3" y="154.2" class="st2" width="4" height="8"/>
		<rect id="Retângulo_2" x="130.3" y="106.2" class="st2" width="4" height="8"/>
		<rect id="Retângulo_3" x="104.3" y="132.2" class="st2" width="8" height="4"/>
		<rect id="Retângulo_4" x="152.3" y="132.2" class="st2" width="8" height="4"/>
		
			<rect id="Retângulo_5" x="147.3" y="147.1" transform="matrix(0.7071 -0.7071 0.7071 0.7071 -63.1124 149.7982)" class="st3" width="4" height="8"/>
		
			<rect id="Retângulo_6" x="113.2" y="113.2" transform="matrix(0.7071 -0.7071 0.7071 0.7071 -49.144 115.8052)" class="st3" width="4" height="8"/>
		
			<rect id="Retângulo_7" x="111.3" y="149.2" transform="matrix(0.7071 -0.7071 0.7071 0.7071 -73.1283 125.8164)" class="st3" width="8" height="4"/>
		
			<rect id="Retângulo_8" x="145.2" y="115.2" transform="matrix(0.7071 -0.7071 0.7071 0.7071 -39.1633 139.856)" class="st3" width="8" height="4"/>
		<path id="Caminho_2" class="st2" d="M157.8,202.2c-7.2,0-15.4-2.8-24-8.2c-13.4-8.5-26.2-22.7-36.1-39.8S82,118.9,81.3,103
			c-0.8-16.3,4-28.3,13.5-33.8s22.2-3.6,36,5.1c13.4,8.5,26.2,22.7,36.1,39.8s15.7,35.3,16.4,51.2c0.7,16.3-4.1,28.3-13.6,33.8
			C166,201.2,161.9,202.2,157.8,202.2z M106.8,70.2c-3.5-0.1-7,0.8-10.1,2.6c-8.1,4.7-12.2,15.4-11.6,30.1
			c0.7,15.2,6.3,32.7,15.9,49.4c9.6,16.6,21.9,30.3,34.8,38.5c12.4,7.9,23.8,9.7,31.9,5.1c8.1-4.7,12.2-15.4,11.6-30.1
			c-0.7-15.2-6.3-32.7-15.9-49.4c-9.6-16.6-21.9-30.3-34.8-38.5C120.8,72.7,113.3,70.2,106.8,70.2z"/>
		<path id="Caminho_3" class="st2" d="M106.8,202.2c-4.2,0.1-8.4-1-12-3.1c-9.5-5.5-14.3-17.4-13.6-33.8c0.7-15.8,6.5-34,16.4-51.2
			s22.7-31.3,36.1-39.8c13.8-8.8,26.6-10.6,36-5.1c9.5,5.5,14.3,17.4,13.6,33.8c-0.7,15.8-6.5,34-16.4,51.2s-22.7,31.3-36.1,39.8
			C122.3,199.5,114.1,202.2,106.8,202.2z M157.8,70.2c-6.5,0-13.9,2.6-21.8,7.6c-12.8,8.2-25.2,21.8-34.8,38.5
			c-9.6,16.6-15.2,34.1-15.9,49.4c-0.7,14.7,3.5,25.4,11.6,30.1s19.4,2.9,31.9-5.1c12.8-8.2,25.2-21.8,34.8-38.5
			c9.6-16.6,15.2-34.1,15.9-49.4c0.6-14.7-3.5-25.4-11.6-30.1C164.8,71,161.3,70.1,157.8,70.2z"/>
		<path id="Caminho_4" class="st2" d="M132.3,174.2c-19.8,0-38.5-4-52.5-11.3c-14.5-7.6-22.5-17.8-22.5-28.7s8-21.1,22.5-28.6
			c14-7.3,32.7-11.4,52.5-11.4s38.5,4,52.5,11.3c14.5,7.6,22.5,17.8,22.5,28.7s-8,21.1-22.5,28.6
			C170.8,170.1,152.1,174.2,132.3,174.2z M132.3,98.2c-39.1,0-71,16.1-71,36s31.9,36,71,36s71-16.1,71-36S171.4,98.2,132.3,98.2z"/>
		<circle id="Elipse_1" class="st4" cx="132.3" cy="134.2" r="15"/>
		<path id="Caminho_5" class="st2" d="M132.3,151.2c-9.4,0-17-7.6-17-17s7.6-17,17-17s17,7.6,17,17
			C149.3,143.5,141.7,151.2,132.3,151.2L132.3,151.2z M132.3,121.2c-7.2,0-13,5.8-13,13s5.8,13,13,13s13-5.8,13-13
			S139.5,121.2,132.3,121.2L132.3,121.2z"/>
	</g>
</g>
</svg>
