<?xml version="1.0" encoding="utf-8"?>
<!-- Generator: Adobe Illustrator 26.1.0, SVG Export Plug-In . SVG Version: 6.00 Build 0)  -->
<svg version="1.1" id="Camada_1" xmlns="http://www.w3.org/2000/svg" xmlns:xlink="http://www.w3.org/1999/xlink" x="0px" y="0px"
	 viewBox="0 0 256 256" style="enable-background:new 0 0 256 256;" xml:space="preserve">
<style type="text/css">
	.st0{fill:#FFFFFF;stroke:#FFFFFF;stroke-width:0.25;stroke-miterlimit:10;}
	.st1{fill:#FF8C1A;stroke:#FFFFFF;stroke-width:0.25;stroke-miterlimit:10;}
</style>
<rect x="126" y="148" class="st0" width="4" height="8"/>
<rect x="126" y="100" class="st0" width="4" height="8"/>
<rect x="100" y="126" class="st0" width="8" height="4"/>
<rect x="148" y="126" class="st0" width="8" height="4"/>
<rect x="143" y="141" transform="matrix(0.7071 -0.7071 0.7071 0.7071 -60.051 144.9639)" class="st0" width="4" height="8"/>
<rect x="109" y="107" transform="matrix(0.7071 -0.7071 0.7071 0.7071 -45.9927 111.0239)" class="st0" width="4" height="8"/>
<rect x="107" y="143" transform="matrix(0.7071 -0.7071 0.7071 0.7071 -69.9887 120.9702)" class="st0" width="8" height="4"/>
<rect x="141" y="109" transform="matrix(0.7071 -0.7071 0.7071 0.7071 -36.0501 135.0275)" class="st0" width="8" height="4"/>
<path class="st0" d="M153.5,196c-7.2,0-15.4-2.8-24-8.2c-13.4-8.5-26.2-22.7-36.1-39.8s-15.7-35.3-16.4-51.2
	C76.2,80.5,81,68.5,90.5,63s22.2-3.6,36,5.1c13.4,8.5,26.2,22.7,36.1,39.8s15.7,35.3,16.4,51.2c0.7,16.3-4.1,28.3-13.6,33.8
	C161.9,195,157.9,196,153.5,196z M102.5,64c-3.7,0-7.1,0.8-10.1,2.6c-8.1,4.7-12.2,15.4-11.6,30.1c0.7,15.2,6.3,32.7,15.9,49.4
	c9.6,16.6,21.9,30.3,34.8,38.5c12.4,7.9,23.8,9.7,31.9,5.1c8.1-4.7,12.2-15.4,11.6-30.1c-0.7-15.2-6.3-32.7-15.9-49.4
	c-9.6-16.6-21.9-30.3-34.8-38.5C116.5,66.5,109,64,102.5,64z"/>
<path class="st0" d="M102.5,196c-4.4,0-8.5-1-12-3.1c-9.5-5.5-14.3-17.4-13.6-33.8c0.7-15.8,6.5-34,16.4-51.2s22.7-31.3,36.1-39.8
	c13.8-8.8,26.6-10.6,36-5.1c9.5,5.5,14.3,17.4,13.6,33.8c-0.7,15.8-6.5,34-16.4,51.2s-22.7,31.3-36.1,39.8
	C118,193.3,109.8,196,102.5,196L102.5,196z M153.5,64c-6.5,0-13.9,2.6-21.8,7.6c-12.8,8.2-25.2,21.8-34.8,38.5
	c-9.6,16.6-15.2,34.1-15.9,49.4c-0.7,14.7,3.5,25.4,11.6,30.1c8.1,4.7,19.4,2.9,31.9-5.1c12.8-8.2,25.2-21.8,34.8-38.5
	c9.6-16.6,15.2-34.1,15.9-49.4c0.6-14.7-3.5-25.4-11.6-30.1C160.5,64.8,157.2,64,153.5,64L153.5,64z"/>
<path class="st0" d="M128,168c-19.8,0-38.5-4-52.5-11.3C61,149.1,53,138.9,53,128s8-21.1,22.5-28.6C89.5,92.1,108.2,88,128,88
	s38.5,4,52.5,11.3C195,106.9,203,117.1,203,128s-8,21.1-22.5,28.6C166.5,163.9,147.8,168,128,168z M128,92c-39.1,0-71,16.1-71,36
	s31.9,36,71,36s71-16.1,71-36S167.1,92,128,92L128,92z"/>
<circle class="st1" cx="128" cy="128" r="15"/>
<g>
	<g>
		<path class="st0" d="M102.6,227.6l0.5,8.9c-0.8,1.3-1.8,2.4-3,3.5c-1.3,1-2.9,1.9-4.8,2.5c-1.9,0.6-4.1,1-6.7,1
			c-4.2,0-7.9-0.8-11-2.3c-3.2-1.5-5.6-3.6-7.3-6.4c-1.7-2.8-2.6-6.2-2.6-10.1c0-3.9,0.8-7.2,2.5-10c1.7-2.8,4.1-5,7.3-6.5
			c3.2-1.5,6.9-2.3,11.3-2.3c2.8,0,5.2,0.3,7.4,0.8c2.2,0.6,4,1.2,5.5,2l0.1,8.8h-0.5c-0.9-3.4-2.4-5.8-4.5-7.3
			c-2.1-1.5-4.6-2.2-7.4-2.2c-2.8,0-5.1,0.7-7.1,2c-2,1.3-3.5,3.2-4.5,5.7c-1.1,2.4-1.6,5.4-1.6,8.8c0,3.4,0.5,6.4,1.5,8.8
			c1,2.5,2.5,4.4,4.3,5.8c1.9,1.4,4.1,2.1,6.6,2.2c2.7,0,4.9-0.4,6.7-1.3c1.8-0.9,3.3-2.3,4.4-4.3c1.1-2,2-4.7,2.5-8.1H102.6z"/>
		<path class="st0" d="M119.9,205.8c0.7,0,1.5,0,2.6,0.1c1,0.1,2.1,0.2,3.2,0.3c1.1,0.1,2,0.2,2.8,0.4c0.8,0.1,1.4,0.2,1.7,0.4
			l-0.6,7H129c0-1.8-0.7-3.2-2-4.3c-1.3-1.1-3.1-1.6-5.3-1.6c-2,0-3.6,0.5-4.8,1.4c-1.2,1-1.9,2.1-1.9,3.5c0,1,0.3,1.9,1,2.7
			c0.7,0.8,1.6,1.5,2.6,2.1l9.9,6.4c1.6,0.9,2.8,2.1,3.6,3.5c0.8,1.4,1.2,3.1,1.1,5.1c-0.2,3.4-1.5,6-3.9,7.9
			c-2.4,1.9-5.7,2.8-9.8,2.8c-1.5,0-3-0.1-4.4-0.4c-1.4-0.3-2.7-0.6-3.8-1.1s-2-1-2.6-1.7c-0.3-0.8-0.4-1.7-0.4-2.7
			c0-1.1,0.2-2.2,0.5-3.3c0.3-1.1,0.7-2,1.1-2.7h0.5c-0.1,1.8,0.2,3.4,1,4.9c0.8,1.5,1.9,2.7,3.4,3.6s3.3,1.3,5.3,1.3
			c2.3,0,4-0.6,5.3-1.7c1.2-1.1,1.9-2.5,1.9-4.1c0-1.1-0.3-2-1-2.9c-0.6-0.9-1.7-1.7-3.1-2.5l-9-6c-1.8-1-3.2-2.4-4-4
			c-0.8-1.6-1.2-3.4-1-5.3c0.2-1.8,0.7-3.4,1.6-4.7c0.9-1.4,2.1-2.4,3.7-3.2C115.9,206.2,117.8,205.8,119.9,205.8z M130.2,206.3
			l-0.1,1.1H124v-1.1H130.2z"/>
		<path class="st0" d="M140.7,238.9v3.8H135v-0.5c0,0,0.3,0,0.8,0c0.9,0,1.8-0.3,2.5-0.9c0.7-0.6,1.2-1.4,1.3-2.4H140.7z
			 M143.9,205.8h0.5l1.8,5.2l-3.5,31.7h-3.6L143.9,205.8z M143,239.8c0,0,0,0.1,0,0.1c0,0,0,0.1,0,0.2c0,0.6,0.2,1.1,0.6,1.5
			c0.4,0.5,0.9,0.7,1.4,0.7h0.8v0.5h-3.2v-2.9H143z M144.4,205.8l16.9,27.7l-2.9,10.2L143,218.1L144.4,205.8z M175.8,205.8l0.4,5.6
			l-15.3,26.6c-0.7,1.2-1.2,2.2-1.5,3.1c-0.3,0.9-0.5,1.7-0.5,2.6h-0.5l-2-4.5L175.8,205.8z M172.5,239.8h0.4v2.9h-3.2v-0.5h0.8
			c0.6,0,1.1-0.2,1.4-0.7c0.4-0.5,0.6-1,0.6-1.5c0-0.1,0-0.1,0-0.2C172.5,239.8,172.5,239.8,172.5,239.8z M176.2,205.8l4.9,36.9
			h-8.3l-2.6-23.8l5.5-13.1H176.2z M179.5,238.9h1.1c0.2,1,0.6,1.8,1.3,2.4c0.7,0.6,1.5,0.9,2.4,0.9h0.8v0.5h-5.7V238.9z"/>
	</g>
</g>
<path class="st0" d="M128,145c-9.4,0-17-7.6-17-17s7.6-17,17-17s17,7.6,17,17S137.4,145,128,145z M128,115c-7.2,0-13,5.8-13,13
	s5.8,13,13,13s13-5.8,13-13S135.2,115,128,115z"/>
</svg>
